<?xml version="1.0" encoding="UTF-8"?> <svg xmlns="http://www.w3.org/2000/svg" xmlns:xlink="http://www.w3.org/1999/xlink" width="500px" height="177px" viewBox="0 0 500 177" version="1.1"><title>asb-glassfloor-logo-audi-01</title><g id="Company-Logos" stroke="none" stroke-width="1" fill="none" fill-rule="evenodd"><g id="Artboard" transform="translate(-3831, -1631)" fill="#000000" fill-rule="nonzero"><g id="asb-glassfloor-logo-audi-01" transform="translate(3831, 1631)"><path d="M410.5,0 C390.660591,0 372.152641,6.56610981 357,17.5495751 C341.970335,6.56610981 323.462366,0 303.5,0 C283.599122,0 265.091058,6.56610981 250,17.5495751 C234.908847,6.56610981 216.685647,0 196.5,0 C176.53753,0 158.029572,6.56610981 143,17.5495751 C128.132129,6.56610981 109.624066,0 89.5,0 C40.1480131,0 0,39.6822679 0,88.2492918 C0,137.317732 40.1480131,177 89.5,177 C109.339417,177 127.847374,170.433777 143,159.450425 C158.029572,170.433777 176.53753,177 196.5,177 C216.400897,177 234.908847,170.433777 250,159.450425 C264.806403,170.433777 283.314353,177 303.5,177 C323.462366,177 341.970335,170.433777 357,159.450425 C371.867872,170.433777 390.375841,177 410.5,177 C459.851892,177 500,137.317732 500,88.2492918 C500,39.6822679 459.851892,0 410.5,0 L410.5,0 Z M357,133.878187 C346.004093,121.615404 339.5,105.645257 339.5,88.2492918 C339.5,70.8532132 346.004093,54.8831799 357,42.6203966 C367.495907,54.8831799 374,70.8532132 374,88.2492918 C374,105.645257 367.495907,121.615404 357,133.878187 Z M249.5,133.878187 C239.004184,121.615404 232.5,105.645257 232.5,88.2492918 C232.5,70.8532132 239.004184,54.8831799 249.5,42.6203966 C260.495928,54.8831799 267,70.8532132 267,88.2492918 C267,105.645257 260.495928,121.615404 249.5,133.878187 Z M142.5,133.878187 C132.002466,121.615404 125.5,105.645257 125.5,88.2492918 C125.5,70.8532132 132.002466,54.8831799 142.5,42.6203966 C153.489002,54.8831799 159.991468,70.8532132 160,88.2492918 C160.274629,105.645257 153.489002,121.615404 142.5,133.878187 Z M18.5,88.7507082 C18.5,49.957498 50.3968814,18.5524079 89.5,18.5524079 C103.938173,18.5524079 117.608281,22.8349745 129,30.5864023 C115.329892,45.9604624 107.070887,66.2309628 107,88.7507082 C107.070887,110.769037 115.329892,131.039557 129,146.413598 C117.608281,153.879627 104.222984,158.447592 89.5,158.447592 C50.3968814,158.447592 18.5,127.042616 18.5,88.7507082 Z M157,146.413598 C170.640298,131.039557 178.881296,110.769037 179,88.7507082 C178.881296,66.2309628 170.640298,45.9604624 157,30.5864023 C168.366879,23.1203917 181.722989,18.5524079 196.5,18.5524079 C211.277011,18.5524079 224.633113,22.8349745 236,30.5864023 C222.359694,45.9604624 213.834501,66.2309628 214,88.7507082 C213.834501,110.769037 222.075623,131.039557 236,146.413598 C224.633113,153.879627 211.277011,158.447592 196.5,158.447592 C182.00718,158.447592 168.366879,153.879627 157,146.413598 Z M264,146.413598 C277.640288,131.039557 286.165451,110.769037 286,88.7507082 C286.165451,66.2309628 277.924472,45.9604624 264,30.5864023 C275.366872,23.1203917 288.72307,18.5524079 303.5,18.5524079 C318.27693,18.5524079 331.633034,22.8349745 343,30.5864023 C329.359712,45.9604624 320.834549,66.2309628 321,88.7507082 C320.834549,110.769037 329.075528,131.039557 343,146.413598 C331.633034,153.879627 318.27693,158.447592 303.5,158.447592 C288.72307,158.447592 275.366872,153.879627 264,146.413598 Z M410.5,158.447592 C396.061909,158.447592 382.391829,154.165139 371,146.413598 C384.6701,131.039557 393.213915,110.769037 393,88.7507082 C393.213915,66.2309628 384.954905,45.9604624 371,30.5864023 C382.391829,23.1203917 395.777104,18.5524079 410.5,18.5524079 C449.60305,18.5524079 481.5,49.957498 481.5,88.7507082 C481.5,127.042616 449.60305,158.447592 410.5,158.447592 Z" id="path36902"></path></g></g></g></svg> 