<?xml version="1.0" encoding="UTF-8"?> <svg xmlns="http://www.w3.org/2000/svg" xmlns:xlink="http://www.w3.org/1999/xlink" width="225px" height="225px" viewBox="0 0 225 225" version="1.1"><title>asb-glassfloor-logo-volleyball-bundesliga-01</title><g id="Company-Logos" stroke="none" stroke-width="1" fill="none" fill-rule="evenodd"><g id="Artboard" transform="translate(-2917, -1607)" fill="#000000" fill-rule="nonzero"><g id="asb-glassfloor-logo-volleyball-bundesliga-01" transform="translate(2917, 1607)"><path d="M106.734516,224.86498 C74.5369638,223.275876 44.9385424,208.076028 24.5876722,182.740274 C6.52803402,160.317925 -2.14917408,131.327288 0.453289219,102.238611 C2.31681558,81.5305466 9.97493879,61.6538221 22.4890302,44.9729961 C39.513414,22.3051027 64.6158727,6.76048474 92.1939253,1.79891984 C99.3396916,0.494669615 104.989618,0 112.43083,0 C117.698206,0 120.575622,0.149899883 125.172585,0.599639948 C159.525646,4.45202654 190.45787,24.1488712 208.518653,53.8176853 C218.332839,69.7783957 223.742981,87.1068223 224.85808,106.136271 C225.121743,109.876615 224.986864,118.825638 224.708177,122.326549 C223.78794,131.776988 221.989555,140.291301 219.011863,149.010527 C212.17337,169.147028 199.389849,187.254934 182.585434,200.729473 C164.336326,215.151303 142.590853,223.455756 119.026562,224.86498 C116.85896,225.029705 108.991025,225.059685 106.734516,224.86498 Z M122.024622,217.819211 C134.720037,216.577214 146.229861,213.459218 157.251827,208.224972 C176.1584,199.458218 192.359076,184.857603 202.972242,166.999725 C211.976732,152.163618 216.922359,136.228861 217.962542,118.72871 C218.226206,115.19738 218.091326,106.398036 217.812639,102.988161 C216.322889,87.9299071 212.021692,73.9888683 204.771078,61.0133647 C196.795154,46.6614341 184.985595,33.8896437 171.042903,24.5852379 C166.911575,21.7624389 160.257458,18.0897997 155.602894,16.0403686 C145.795245,11.6589334 135.394441,8.81076414 124.722876,7.64540933 C116.406229,6.62217095 107.339245,6.66714204 99.0894633,7.79531932 C59.9211689,12.7232492 26.6805579,39.3461363 13.1950442,76.6040033 C4.90481057,99.3675551 4.79990332,124.866165 12.8952382,147.811247 C21.1954075,171.216371 37.7857395,191.273479 59.3651683,203.877582 C73.3642834,212.050124 89.0853838,216.862031 105.685195,217.969121 C108.628105,218.226154 119.148804,218.091241 122.024622,217.819211 Z" id="Shape" transform="translate(112.5, 112.5) scale(-1, 1) rotate(-180) translate(-112.5, -112.5)"></path><path d="M108.453538,211.079476 C98.1973901,210.704592 86.6217375,208.290334 76.9053866,204.496502 C49.8405512,193.924754 28.96839,172.301407 19.3569997,144.904836 C16.4181035,136.552405 14.6187792,127.375229 14.0489932,117.988117 C13.839072,114.43421 13.959027,106.921522 14.2889031,103.442592 C16.2681598,82.5240281 24.2751526,63.7348088 38.1149549,47.5847776 C39.8543017,45.5604005 45.7620829,39.6372228 47.8013171,37.897758 C63.8902746,24.087007 82.4982861,16.1394522 103.580368,14.0700889 C106.909118,13.7401904 114.916111,13.6052319 118.424793,13.8301627 C139.641825,15.1497567 159.104516,22.7824084 175.403394,36.1732885 C184.355032,43.5210279 192.017155,52.5332552 198.044891,62.8050949 C199.634294,65.5342552 202.663157,71.6223821 203.8777,74.5764733 C216.338021,104.762186 213.099237,139.371538 195.285927,166.423215 C189.243197,175.585396 182.435753,183.08309 174.173856,189.636074 C155.340929,204.571478 132.699432,211.964204 108.453538,211.079476 Z M115.278987,195.615605 L117.002872,195.450919 L118.037202,193.025548 C118.621824,191.708063 119.281397,190.180978 119.506252,189.656978 L119.92598,188.698807 L121.994642,191.738006 L124.048313,194.762234 L125.097634,194.672405 C128.110684,194.417891 129.669675,194.238234 129.669675,194.148405 C129.669675,194.103491 127.930801,191.693092 125.802178,188.803607 L121.93468,183.533666 L121.589904,179.89561 C121.41002,177.889439 121.200156,176.197668 121.155185,176.152754 C121.095224,176.10784 119.985941,176.167725 118.696776,176.287497 C116.463221,176.497097 116.328308,176.527039 116.343299,176.826468 C116.343299,177.006125 116.493202,178.667953 116.673085,180.539381 L117.017862,183.937894 L114.199686,189.866578 C112.655685,193.115377 111.381509,195.825205 111.381509,195.88509 C111.381509,195.974919 112.071063,195.930005 115.278987,195.615605 Z M106.146355,193.395633 C106.326812,192.192935 106.462154,191.185675 106.432078,191.140574 C106.402002,191.110506 104.747816,190.839899 102.762792,190.524191 C100.777768,190.208483 99.0935054,189.907808 99.0333532,189.862707 C98.9280867,189.772504 99.258924,187.382142 99.3942666,187.246838 C99.4243427,187.216771 100.867996,187.412209 102.612411,187.69785 C104.672625,188.028592 105.785442,188.148862 105.845594,188.043626 C106.041089,187.727918 106.492231,184.285194 106.356888,184.164924 C106.281698,184.104789 104.823006,183.819148 103.093629,183.548541 C100.431893,183.127597 99.9807509,183.022361 100.040903,182.811889 C100.070979,182.676585 100.191284,182.015101 100.281512,181.338583 C100.386778,180.647032 100.492045,180.090784 100.522121,180.090784 C100.552197,180.090784 102.23646,180.361391 104.281636,180.692133 C106.326812,181.022875 108.071227,181.278448 108.161455,181.248381 C108.28176,181.20328 109.078777,176.933701 108.97351,176.858532 C108.883282,176.813431 96.3114644,174.828979 96.2964264,174.87408 C96.206198,174.979316 93.3339287,193.485835 93.394081,193.54597 C93.4542332,193.606105 105.018501,195.515389 105.559871,195.56049 C105.770404,195.575523 105.87567,195.184647 106.146355,193.395633 Z M140.836655,190.52421 C143.831434,189.366944 145.119188,188.67559 145.837935,187.818912 C146.362021,187.187676 146.916055,186.000351 147.035846,185.21882 C147.140663,184.43729 146.871133,183.039552 146.421917,182.152816 C146.047569,181.416374 144.939501,180.304195 144.415415,180.123842 L144.08599,180.018636 L144.475311,179.567753 C146.227256,177.478662 145.793013,174.112069 143.54693,172.248419 C142.573627,171.451859 141.525454,171.121212 139.908274,171.121212 L138.485755,171.121212 L133.993588,172.819538 C131.522896,173.766392 129.351682,174.577982 129.186969,174.653129 C128.872517,174.758335 128.992308,175.088982 132.136825,183.460376 C133.948666,188.239736 135.446055,192.237565 135.490977,192.327742 C135.565846,192.538154 135.775481,192.463007 140.836655,190.52421 Z M81.3202059,181.773512 C82.7939058,178.425527 84.0420393,175.648052 84.0871526,175.587998 C84.1322658,175.527945 85.6811544,176.143493 87.5307981,176.969229 C90.403009,178.230353 90.8992549,178.410514 90.9744436,178.200327 C91.0345947,178.050193 91.4255763,177.164403 91.8616711,176.203547 L92.6436343,174.446981 L87.04959,171.969773 C83.9818883,170.618569 81.4254702,169.552619 81.3653192,169.597659 C81.1999039,169.732779 73.6960649,186.742941 73.756216,186.818008 C73.7862915,186.848035 74.793821,187.298436 75.9968412,187.823904 L78.1622777,188.784761 L78.4028818,188.319346 C78.5382216,188.064119 79.8465061,185.121496 81.3202059,181.773512 Z M65.5036351,172.652968 C67.9042083,169.528351 69.8846811,166.956897 69.8996847,166.941946 C69.9146883,166.926996 71.2049964,167.883816 72.7503653,169.079842 C74.2957343,170.260917 75.6160495,171.262588 75.6910674,171.277538 C75.7510818,171.292489 76.3962358,170.544973 77.1014042,169.603103 C78.3016907,168.03332 78.3917122,167.898767 78.1366513,167.719363 C77.9866155,167.59976 75.8110961,165.940275 73.2904943,164.011684 C69.0294769,160.737565 68.6993981,160.51331 68.4743444,160.737565 C67.8742011,161.350528 57.2216577,175.314124 57.2665263,175.433727 C57.3266828,175.628081 60.8825318,178.39389 61.017564,178.363989 C61.0775784,178.349039 63.0880584,175.777584 65.5036351,172.652968 Z M164.297268,177.871855 C164.297268,177.646513 159.961713,157.080301 159.901705,157.02021 C159.856699,156.975142 156.286242,159.724314 155.761174,160.205044 C155.596153,160.370294 155.611155,160.565591 155.88119,161.451936 C156.046211,162.037825 156.19623,162.533577 156.19623,162.578646 C156.19623,162.683805 151.410617,166.439505 151.2756,166.439505 C151.215592,166.439505 150.780536,166.19914 150.285473,165.898684 C149.805411,165.613251 149.32535,165.387909 149.235338,165.417955 C149.025311,165.478046 144.959781,168.587765 144.959781,168.692925 C144.944788,168.783062 163.99723,178.00706 164.192255,178.00706 C164.252263,178.00706 164.297268,177.946969 164.297268,177.871855 Z M54.4857494,165.44893 C57.2605698,164.776378 59.8254038,162.698941 61.1453183,160.068518 C63.8151455,154.717996 60.3953669,147.753351 54.3357591,146.19901 C52.3258892,145.69086 49.656062,146.049554 47.6161941,147.125637 C46.0712941,147.947644 43.986429,150.025081 43.2664756,151.459858 C41.8265688,154.389193 41.9615601,157.901407 43.6414513,160.741069 C44.3464057,161.936716 46.4762678,164.029099 47.586196,164.597031 C49.8660484,165.792679 52.0259086,166.046754 54.4857494,165.44893 Z M178.602796,163.881866 L180.037083,161.931933 L178.647618,160.911968 C177.900593,160.356987 175.271067,158.422054 172.835768,156.622115 C170.385527,154.837177 168.383502,153.322229 168.383502,153.27723 C168.383502,153.232232 169.294872,151.942276 170.415408,150.412329 C171.535945,148.882381 172.477196,147.547427 172.507077,147.45743 C172.551898,147.322435 169.160407,144.742523 169.070764,144.84752 C168.62255,145.357502 162.063675,154.537187 162.048723,154.657183 C162.033794,154.822177 176.824878,165.8168 177.078867,165.831799 C177.123688,165.831799 177.81095,164.946829 178.602796,163.881866 Z M109.351951,160.621595 C110.804914,159.961825 113.036783,158.417364 114.42983,157.11282 C121.874389,150.170245 126.218296,137.199776 127.266826,118.786208 L127.446574,115.562334 L127.79109,117.811548 C129.558611,129.612426 128.659872,141.833157 125.349515,150.830015 C124.166174,154.038894 122.0092,157.907543 120.226699,159.991815 C119.62754,160.696568 119.597582,160.771542 119.882183,160.771542 C120.451384,160.771542 123.746763,160.066788 125.768926,159.511982 C131.296174,157.982516 138.126595,154.653679 140.178717,152.464444 C143.414179,149.045638 145.451322,142.297995 147.503444,128.307882 C147.788045,126.418542 148.042687,124.96405 148.087624,125.084008 C148.192477,125.353914 148.581931,128.877683 148.791637,131.306834 C148.986364,133.691001 148.986364,139.014142 148.776658,141.068424 C148.686784,141.96811 148.492057,143.377618 148.327288,144.20233 C148.177498,145.027042 148.042687,145.761785 148.042687,145.836759 C148.042687,146.046686 148.477078,145.611837 149.600503,144.277304 C155.741889,137.004844 159.456679,128.697746 160.879683,119.161077 C161.089389,117.736574 161.134326,116.372051 161.149305,112.638355 L161.149305,107.915005 L160.625041,106.940345 C159.906049,105.590817 157.898864,103.581519 156.356028,102.681833 C154.378801,101.527236 151.71254,100.62755 148.866532,100.162713 C147.069053,99.8628176 140.253612,99.9078019 137.827015,100.237687 C135.310544,100.582566 132.299767,101.137372 129.543632,101.767152 C126.338128,102.516891 126.472939,102.501896 127.027162,102.23199 C128.869578,101.377289 135.864767,99.2630271 140.103822,98.2733728 C146.409977,96.7888913 149.64544,96.369038 154.663402,96.369038 C156.790419,96.369038 158.527982,96.3540432 158.527982,96.3390484 C158.527982,96.3090589 158.25836,95.6043051 157.913843,94.7645984 C156.580713,91.4207664 155.157709,88.7067144 153.090608,85.5428196 L151.877309,83.7284533 L150.604095,83.1286628 C143.84857,79.9797627 133.782687,80.2346737 120.840838,83.8634062 C115.043968,85.4828405 106.461006,88.7367039 99.7803755,91.8556145 C98.97151,92.2154888 98.3124343,92.5003893 98.3124343,92.4703998 C98.3124343,92.3804312 100.828905,90.5660649 102.506552,89.4414578 C114.190166,81.6441814 130.307561,75.7512398 141.856364,75.0614807 L143.534011,74.9565174 L142.380628,74.0418369 C138.096637,70.6530206 131.35609,67.1592409 128.420208,66.7693771 C120.840838,65.7797228 112.617372,67.5041205 100.499367,72.6173344 C99.3459848,73.1121616 98.4023083,73.4870307 98.3723503,73.4570411 C98.2974553,73.3820673 101.967308,70.7129996 103.255502,69.9032825 C106.041594,68.1488953 110.834872,66.0646233 114.564641,64.9700056 C117.755166,64.0253356 117.69525,64.1153042 115.31359,63.9803513 C104.483779,63.3805608 93.9086107,66.3945081 84.7115097,72.7222978 C83.6929382,73.4270516 83.3783794,73.906884 82.6743668,75.8711979 C80.9817407,80.6095428 80.7720348,86.0676362 82.0602281,91.8706093 C82.8391357,95.3343994 84.5317618,99.6978752 86.3891568,103.026712 C87.2878963,104.631152 89.3549972,107.825036 90.1189258,108.784701 C90.9577493,109.849329 90.4185056,109.489455 89.0104804,108.034963 C84.0074971,102.86177 79.0943877,94.539677 76.3981692,86.6224425 C76.0386734,85.5578143 75.5743246,84.0133538 75.3945767,83.2036366 C74.990144,81.4642442 75.1698919,81.3892704 73.2675599,84.0133538 C70.8259842,87.3721806 68.5491774,91.6306931 67.0962152,95.5143365 C66.3173076,97.5986085 66.3023287,97.883509 66.6318665,100.37264 C68.1447447,111.333811 75.1549129,122.579883 85.924808,131.246855 C86.7336736,131.906625 87.3478123,132.431441 87.3028753,132.431441 C87.1231274,132.431441 84.9961105,131.306834 83.8577072,130.60208 C76.2783373,125.893725 68.9086732,118.081454 64.9242614,110.554083 L64.1902908,109.144575 L64.0704589,109.864324 C63.90569,110.958942 64.1153958,116.821894 64.3850177,118.786208 C65.658232,128.022981 69.0434842,135.9852 74.7355011,143.152696 C75.4694717,144.067377 77.0422658,145.791775 78.2555642,147.021345 L80.457476,149.225575 L81.5060054,149.225575 C83.7378752,149.225575 86.6437996,148.445848 88.8756694,147.246267 C94.8822452,144.037387 99.1662369,137.454687 101.682708,127.558144 L101.907392,126.658458 L101.832497,127.933013 C101.637771,130.91697 100.469409,136.555001 99.2710898,140.183734 C97.159052,146.571502 94.0134637,151.429805 90.4334846,153.813972 C89.75943,154.263815 89.1452913,154.62369 89.0703963,154.62369 C88.9805224,154.62369 88.8457115,154.713658 88.7558375,154.818622 C88.6210266,154.983564 89.1153333,155.268464 91.0925602,156.243124 C95.7660057,158.537323 100.139871,159.94683 104.828296,160.681574 C105.65214,160.801532 106.490964,160.936485 106.70067,160.966474 C107.764178,161.131416 108.393296,161.056443 109.351951,160.621595 Z M44.5903528,141.377149 C48.4612923,137.439911 51.5998919,134.178916 51.5700005,134.14886 C51.4653805,134.043667 30.6609489,132.044993 30.5862203,132.135158 C30.5114918,132.210296 32.1854115,136.989082 32.3348687,137.139358 C32.3647601,137.169413 34.501997,137.274607 37.0876052,137.364773 C39.6732134,137.454938 41.9001246,137.545104 42.0196903,137.560132 C42.139256,137.575159 40.5699562,139.09295 38.552285,140.941348 L34.8606941,144.292509 L35.2044454,145.224221 C35.3987397,145.735161 35.8172196,146.87726 36.1310796,147.76389 L36.7139624,149.371846 L37.1324423,148.966101 C37.3715737,148.740686 40.734359,145.329415 44.5903528,141.377149 Z M188.953009,146.837737 C189.460838,145.621504 189.834241,144.585454 189.774496,144.525393 C189.729688,144.480348 186.727527,143.204054 183.112985,141.702532 C179.498443,140.201011 176.526155,138.954748 176.511219,138.939733 C176.496283,138.939733 177.108664,137.40818 177.885342,135.546294 C178.647084,133.684407 179.259465,132.152855 179.244529,132.152855 C179.244529,132.137839 178.333426,131.762459 177.243097,131.296987 L175.256584,130.47115 L175.107223,130.846531 C175.032543,131.056744 173.987014,133.594315 172.792124,136.492252 C171.597234,139.375174 170.686131,141.792624 170.745875,141.852685 C170.865364,141.972806 187.817864,149.044973 187.967225,149.059989 C188.012034,149.059989 188.460117,148.068984 188.953009,146.837737 Z M40.2950741,111.296662 C42.9170379,110.204942 43.1867256,106.51104 40.7295709,105.105263 C38.4222428,103.789217 35.5455739,105.419319 35.5305912,108.066367 C35.5305912,110.010526 37.0138736,111.520988 38.9466355,111.535943 C39.3811324,111.535943 39.9804384,111.431258 40.2950741,111.296662 Z M188.195623,111.164735 C189.146286,110.684894 189.770159,109.875161 190.007825,108.795517 C190.334615,107.311006 189.532493,105.63156 188.165915,104.971777 C187.348938,104.566911 185.997214,104.551916 185.165384,104.941787 C183.917638,105.511599 183.041246,107.041095 183.204641,108.39065 C183.501723,110.909819 185.967506,112.27437 188.195623,111.164735 Z M53.9586585,84.1461354 C54.9016314,82.3492436 55.784733,80.5074294 55.9344113,80.0582065 C56.7576416,77.5874802 55.7398295,75.1766503 53.4497525,74.1434375 C52.2223909,73.6043699 51.3392893,73.5294994 50.2915416,73.8739037 L49.4533434,74.1584116 L49.3934721,72.8856132 C49.3336008,71.4031774 49.0791478,70.7592912 48.1960462,69.8758193 C46.9537168,68.6479432 44.7384788,68.0340052 43.1818251,68.5281505 C42.2987235,68.7976842 41.1162654,69.666182 40.4576812,70.5346797 C39.9188395,71.2384623 35.877527,78.6805894 35.9823018,78.7854081 C36.0272052,78.8303304 52.1475518,87.3655666 52.2223909,87.3955148 C52.2373587,87.3955148 53.0156856,85.9280532 53.9586585,84.1461354 Z M183.829629,84.5087248 C188.011923,84.4487033 191.429711,84.358671 191.429711,84.2836441 C191.429711,84.2086172 191.174876,83.6534181 190.87507,83.0231921 L190.320429,81.9127939 L188.236777,81.8677778 L186.138135,81.8227616 L184.429241,78.1614486 C182.720347,74.5301464 182.720347,74.515141 183.005163,74.1850226 C183.155066,74.0199634 183.769668,73.3147105 184.35429,72.624463 L185.433591,71.3940217 L184.833979,70.1935912 C184.504193,69.5333545 184.204387,68.9931607 184.174406,68.9931607 C184.144426,68.9931607 181.401201,72.1893069 178.073354,76.090706 C174.760498,79.9770997 171.777428,83.4583482 171.462632,83.8034719 C171.147835,84.1636011 170.893,84.5237302 170.893,84.6137625 C170.893,84.7488109 171.597544,84.7638163 173.561274,84.6887894 C175.015333,84.6437733 179.632345,84.553741 183.829629,84.5087248 Z M168.605267,72.9417863 C168.800037,71.6210083 168.800037,71.6210083 167.706328,71.5009376 C166.597638,71.3658581 165.354107,70.7054691 164.33531,69.6848679 C161.593549,66.9232413 161.698425,63.0359516 164.604992,60.1242366 C166.912266,57.8128752 170.028585,57.1524862 172.620524,58.4282376 C174.4184,59.2987504 176.066453,61.3699704 176.50094,63.2911019 C176.740657,64.2516677 176.815568,64.131597 174.897834,65.7675606 L173.579391,66.8932236 L172.111125,65.167207 C171.302081,64.22165 170.582931,63.4411903 170.523001,63.4411903 C170.44809,63.4411903 170.028585,63.756376 169.594099,64.131597 L168.785054,64.8220036 L170.97247,67.3885154 C172.171055,68.8143552 173.24978,70.0600889 173.339674,70.1801597 C173.50448,70.3452569 174.043842,69.9400182 176.485958,67.8537894 L179.437471,65.3323042 L179.332595,64.3717384 C179.197754,63.0359516 178.883126,62.0753859 178.163976,60.6645549 C177.295002,58.9835647 175.302356,56.9723801 173.699249,56.1919204 C171.047382,54.8861513 168.335585,54.8861513 165.638771,56.1619027 C162.792133,57.5277072 160.619699,60.2142896 159.990443,63.1260047 C159.570938,65.1071716 159.84062,66.953259 160.844434,68.9944613 C162.207823,71.7560879 165.354107,74.0224228 167.886116,74.0824582 L168.440461,74.097467 L168.605267,72.9417863 Z M61.5987862,71.7571801 C62.0200131,71.2611775 62.3810648,70.8403268 62.3810648,70.7952356 C62.3810648,70.7651748 60.3501492,68.8412859 57.867919,66.5115766 C55.4007326,64.1818673 53.1742473,61.9874314 52.9335462,61.6267022 C52.3317934,60.75494 52.1061361,59.9733601 52.1813552,59.0565068 C52.2716182,58.0494712 52.6627575,57.2378305 53.5052114,56.4111595 C55.1449877,54.7578174 57.1909471,54.6375743 59.0413369,56.0955214 C59.7784841,56.6817063 64.4721557,61.0405173 66.8490792,63.3702266 L68.2331106,64.7079307 L69.1056521,63.7760469 C69.5870543,63.2650139 69.9932374,62.7990721 70.0082813,62.7389505 C70.0082813,62.6938594 69.4667038,62.1377352 68.7897319,61.5214895 C68.11276,60.9052439 65.9163624,58.8761422 63.9305782,56.9973444 C60.0041413,53.329931 59.2519504,52.8038676 57.446692,52.4731992 C55.5662146,52.1275004 53.5804305,52.8790195 51.8503912,54.6225439 C49.1876352,57.3129824 48.7513644,60.1537247 50.5867104,62.9493759 C51.0681126,63.6858646 60.3501492,72.6139119 60.6510256,72.6289423 C60.7412885,72.6289423 61.1625154,72.2381523 61.5987862,71.7571801 Z M158.76769,53.955825 C161.672506,50.2151935 164.080644,47.0880256 164.140848,46.9982504 C164.201051,46.8935127 163.83983,46.5044871 163.237796,46.0556113 C162.425049,45.4271852 162.199286,45.3224475 162.048778,45.4720728 C161.74776,45.8012483 150.986394,59.6864724 150.956292,59.8061726 C150.941241,59.8660227 151.362665,60.2700109 151.904497,60.6889616 L152.882803,61.4520505 L153.198871,61.1079124 C153.36443,60.9133995 155.877924,57.6964565 158.76769,53.955825 Z M75.2244954,52.0782855 C76.1213054,47.6423626 76.8985408,43.9107924 76.9433813,43.7609301 C77.0031686,43.5960816 78.0345001,45.214594 80.0822163,48.6764122 C81.7562617,51.5237952 83.1762109,53.8766327 83.2359982,53.9066051 C83.3107324,53.9515638 85.0894056,52.9774591 85.4482903,52.6927208 C85.4929701,52.6627484 76.1362522,36.7773488 75.9718371,36.6125003 C75.9419434,36.5825278 75.8821561,36.5825278 75.8373156,36.6125003 C75.8074219,36.657459 75.0301865,40.3590568 74.1184297,44.8549246 C73.2066728,49.3358062 72.4593311,53.0673765 72.4294375,53.1273214 C72.4144906,53.2022525 70.9945414,50.8793875 69.2756556,47.9870458 C67.5567697,45.0947042 66.1218737,42.7418667 66.0620863,42.7718392 C65.1204358,43.221426 63.9545828,44.0156959 64.0143701,44.1805444 C64.1787853,44.6001588 73.4159285,60.1258889 73.5056095,60.1258889 C73.55045,60.1258889 74.3276854,56.4992222 75.2244954,52.0782855 Z M144.420633,47.1316591 C146.394512,43.3909195 148.084271,40.2187723 148.173993,40.0841057 C148.308576,39.8895873 148.816999,40.1140316 151.688094,41.6252904 C153.52739,42.5978827 155.247057,43.5106232 155.516222,43.6752157 L155.979784,43.9595119 L156.518115,42.9420308 C157.026538,41.9844014 157.041492,41.9095866 156.802234,41.7300311 C156.009692,41.1464758 147.142193,36.5977364 147.022564,36.7174401 C146.84312,36.8969956 138.513952,52.6380277 138.513952,52.7876573 C138.513952,52.922324 140.428016,53.9547681 140.682228,53.9547681 C140.771949,53.9547681 142.446755,50.8873616 144.420633,47.1316591 Z M93.5804919,50.3968231 C98.1780575,49.2282068 100.274667,48.0745727 101.727318,45.902145 C102.640841,44.523777 103.015236,43.1903558 102.985284,41.2726265 C102.940357,36.5082677 100.304619,32.7627026 96.3510119,31.8188202 C95.9017384,31.7139444 94.8384577,31.6390331 93.9998138,31.6390331 C92.666969,31.6540153 92.0080346,31.7738734 88.9829262,32.5080042 C87.0660259,32.9874365 85.4785928,33.3919575 85.4486412,33.4069398 C85.4037139,33.4369043 89.6867881,50.6964683 89.8365459,51.1459361 C89.896449,51.2657942 90.0312311,51.310741 90.2558679,51.2508119 C90.4355773,51.2058652 91.9331556,50.8163264 93.5804919,50.3968231 Z M133.619491,49.9991913 C134.113586,49.8796912 134.592709,49.7153786 134.682544,49.6406911 C134.787352,49.551066 134.727462,49.1626908 134.457955,48.3710028 C134.053696,47.116252 134.218394,47.1760021 132.646274,47.6390648 C131.643112,47.937815 129.606843,47.8631275 128.618653,47.5046273 C126.612329,46.7726893 125.818782,44.9055006 126.85189,43.3519997 C127.43582,42.5005616 127.750244,42.4258741 131.298743,42.3213115 C134.682544,42.216749 135.401227,42.0972489 136.599033,41.4101235 C138.440659,40.3346228 139.234205,37.2574959 138.216071,35.091557 C137.093128,32.7314305 134.218394,31.2824921 130.669895,31.2824921 C128.977995,31.2824921 127.076478,31.7156799 126.402713,32.2384927 C126.38774,32.2534303 126.537466,32.7314305 126.747082,33.2990559 C126.941725,33.8816188 127.151341,34.4343066 127.181286,34.5388692 C127.241176,34.6882443 127.316039,34.6882443 127.585546,34.5089942 C128.828269,33.7173062 131.703002,33.5231185 133.424848,34.1056814 C134.607681,34.4940566 135.685706,35.3753697 135.94024,36.1521202 C136.194774,36.8840581 136.06002,38.0193088 135.670734,38.5570592 C135.056858,39.4234347 134.547791,39.5429348 131.074155,39.6624349 C127.600518,39.7819349 126.881835,39.9163725 125.669057,40.7379355 C124.096937,41.7686237 123.378253,44.4723129 124.111909,46.4291266 C125.264797,49.461441 129.502035,51.044817 133.619491,49.9991913 Z M119.927116,46.6224039 L119.927116,45.3440784 L115.516144,45.3440784 L111.105173,45.3440784 L111.105173,43.9454399 C111.105173,43.1634054 111.15003,41.9151582 111.20984,41.1481628 L111.299555,39.7645634 L115.082524,39.8096808 L118.85054,39.8547982 L118.940255,39.3284289 C118.985112,39.0426855 119.029969,38.5163162 119.029969,38.1854554 L119.029969,37.5538122 L115.142333,37.4485384 L111.254697,37.3432645 L111.254697,34.5008701 L111.254697,31.6584757 L115.815193,31.6584757 L120.375689,31.6584757 L120.375689,30.5305414 C120.375689,29.7485069 120.31588,29.3725288 120.19626,29.3274115 C120.091593,29.2973332 117.474915,29.2522158 114.379759,29.2070985 L108.757639,29.1619811 L108.652972,33.9745007 C108.608115,36.6364257 108.548305,40.802263 108.548305,43.2386011 L108.533352,47.6751426 L113.811566,47.7503382 C116.727293,47.7954556 119.284161,47.840573 119.5234,47.8706512 L119.927116,47.9007295 L119.927116,46.6224039 Z" id="Shape" transform="translate(112.6557, 112.4348) scale(-1, 1) rotate(-180) translate(-112.6557, -112.4348)"></path><path d="M138.187423,40.7163988 C137.917598,40.0418038 137.737714,39.4271729 137.767695,39.3522179 C137.842646,39.1273529 139.836356,38.362812 140.390997,38.362812 C141.05057,38.347821 141.410338,38.5576949 141.695153,39.0973709 C142.219814,40.1167588 141.710144,40.8063448 139.956278,41.4809397 C139.296705,41.7357867 138.727074,41.9456607 138.697093,41.9456607 C138.667113,41.9456607 138.442258,41.3909937 138.187423,40.7163988 Z" id="Path" transform="translate(139.8279, 40.1539) scale(-1, 1) rotate(-180) translate(-139.8279, -40.1539)"></path><path d="M135.755737,47.5815305 C135.455931,46.8019985 135.216086,46.1274036 135.216086,46.0974216 C135.216086,45.9475116 139.008632,44.6582857 139.428361,44.6582857 C140.102924,44.6582857 140.9124,45.4977816 140.9124,46.2023586 C140.9124,46.7870075 140.492672,47.4016385 139.87807,47.7314404 C139.323429,48.0162694 136.685136,49.0056753 136.475272,49.0056753 C136.38533,49.0056753 136.055543,48.3610624 135.755737,47.5815305 Z" id="Path" transform="translate(138.0642, 46.832) scale(-1, 1) rotate(-180) translate(-138.0642, -46.832)"></path><path d="M156.697186,57.0945822 C155.677846,56.4949422 154.853379,55.9702573 154.853379,55.9252843 C154.853379,55.8803113 155.40802,55.4155903 156.067594,54.8909054 C156.937031,54.2163104 157.311789,54.0064364 157.40173,54.1413554 C157.566624,54.4111934 158.645925,58.0390151 158.585964,58.1139701 C158.555983,58.1439521 157.701536,57.6792311 156.697186,57.0945822 Z" id="Path" transform="translate(156.7209, 56.109) scale(-1, 1) rotate(-180) translate(-156.7209, -56.109)"></path><path d="M49.9055555,73.8157782 C49.4708368,73.6358862 48.8112636,73.2011472 48.4365061,72.8263723 C46.8775149,71.3122814 46.4877671,69.2435236 47.432156,67.3396667 C48.031768,66.1253958 49.0960793,65.1060079 50.4601966,64.461395 C51.2696728,64.08662 51.6144497,64.011665 52.5588386,63.996674 C53.8929753,63.996674 54.7474224,64.326476 55.7367822,65.2559179 C57.2807831,66.6650718 57.7304921,68.8687486 56.876045,70.7126414 C56.3513845,71.8219753 55.227112,72.9163182 53.9679268,73.5309492 C52.678761,74.1755621 51.0897892,74.2804991 49.9055555,73.8157782 Z" id="Path" transform="translate(52.1134, 69.0494) scale(-1, 1) rotate(-180) translate(-52.1134, -69.0494)"></path><path d="M48.9768904,147.435741 C47.6877246,146.761146 46.6234132,146.146515 46.6234132,146.056569 C46.6234132,145.981614 47.1180931,145.007199 47.7177052,143.897865 C49.0518419,141.42435 49.5015509,141.004602 50.8656682,140.914657 C51.6901347,140.869684 51.8700183,140.914657 52.4846206,141.304422 C53.3840386,141.889071 53.7288155,142.593648 53.6388737,143.702982 C53.5789125,144.347595 53.3390677,144.962226 52.5295915,146.536281 C51.9599601,147.645615 51.4652802,148.575057 51.4203093,148.605039 C51.3753384,148.635021 50.2810465,148.110336 48.9768904,147.435741 Z" id="Path" transform="translate(50.1381, 144.7534) scale(-1, 1) rotate(-180) translate(-50.1381, -144.7534)"></path><path d="M43.0857024,153.245575 C42.516071,152.930764 41.4217791,152.331124 40.6572738,151.926367 L39.2781662,151.191808 L40.6272932,148.658329 C42.0064008,146.049895 42.4111389,145.495229 43.2805763,144.955553 C44.3298973,144.31094 46.0088109,144.715697 46.863258,145.840021 C47.2230252,146.319733 47.2829864,146.514616 47.2829864,147.414076 C47.2829864,148.418473 47.2380155,148.52341 45.9188691,151.101862 C45.1693541,152.555989 44.46481,153.77026 44.3448876,153.785251 C44.2249652,153.800242 43.6703241,153.560386 43.0857024,153.245575 Z" id="Path" transform="translate(43.2806, 149.2171) scale(-1, 1) rotate(-180) translate(-43.2806, -149.2171)"></path><path d="M176.20483,148.052746 C177.449025,146.478691 180.926775,142.611014 181.016716,142.70096 C181.166619,142.865861 183.580058,148.007773 183.520097,148.067737 C183.490116,148.082728 181.796212,148.157683 179.727551,148.217647 C176.084908,148.322584 175.994966,148.322584 176.20483,148.052746 Z" id="Path" transform="translate(179.8304, 145.4911) scale(-1, 1) rotate(-180) translate(-179.8304, -145.4911)"></path><path d="M91.7600939,190.581001 C91.5352394,189.936388 88.5371794,177.673751 88.5971406,177.613787 C88.6271212,177.568814 89.466578,177.328958 90.4409475,177.074111 C92.764444,176.45948 95.0279793,176.414507 96.362116,176.954183 C98.8355155,177.928598 100.5594,181.121681 100.334546,184.299772 C100.109691,187.252999 98.0410296,189.186838 93.9336874,190.236208 C93.06425,190.446082 92.2397835,190.670947 92.0898805,190.700929 C91.9549678,190.745902 91.8050648,190.685938 91.7600939,190.581001 Z" id="Path" transform="translate(94.4752, 183.6476) scale(-1, 1) rotate(-180) translate(-94.4752, -183.6476)"></path></g></g></g></svg> 