<?xml version="1.0" encoding="UTF-8"?> <svg xmlns="http://www.w3.org/2000/svg" xmlns:xlink="http://www.w3.org/1999/xlink" width="337px" height="116px" viewBox="0 0 337 116" version="1.1"><title>asb-glassfloor-logo-dell-01</title><g id="Company-Logos" stroke="none" stroke-width="1" fill="none" fill-rule="evenodd"><g id="Artboard" transform="translate(-3312, -1661)" fill="#000000" fill-rule="nonzero"><g id="asb-glassfloor-logo-dell-01" transform="translate(3312, 1661)"><path d="M60.589896,58.1948737 C60.589896,71.2641407 51.8937775,78.6879806 39.582341,78.6879806 L32.0475483,78.6879806 L32.0475483,37.6879806 L39.3680487,37.6879806 C50.8154035,37.6879806 60.589896,43.8917466 60.589896,58.1948737 M193.887232,43.3850704 L138.70685,0 L88.2748673,39.6455696 C80.9976538,22.1899917 63.4127725,10.0657755 43.1616411,10.0657755 L1.70530257e-13,10.0657755 L1.70530257e-13,106.071454 L43.1616411,106.071454 C65.7904079,106.071454 82.0971384,91.7035372 88.2611237,76.3955992 L138.70685,116 L157.391216,101.316456 L111.15789,65.033006 L120.0431,58.0891991 L166.262682,94.3520644 L184.974535,79.7096889 L138.748081,43.3850704 L147.619547,36.4275405 L193.887232,72.7590205 L193.887232,106.071454 L227.428383,106.071454 L227.428383,38.0880161 L260.887073,38.0880161 L260.887073,9.94913049 L193.887232,9.94913049 L193.887232,43.3850704 Z M303.515582,37.9670477 L337,37.9670477 L337,9.87767656 L269.900446,9.87767656 L269.900446,105.877677 L303.515582,105.877677 L303.515582,37.9670477 Z" id="path3466" transform="translate(168.5, 58) scale(-1, 1) rotate(-180) translate(-168.5, -58)"></path></g></g></g></svg> 