<?xml version="1.0" encoding="UTF-8"?> <svg xmlns="http://www.w3.org/2000/svg" xmlns:xlink="http://www.w3.org/1999/xlink" width="208.815917px" height="208.827307px" viewBox="0 0 208.815917 208.827307" version="1.1"><title>asb-glassfloor-logo-fiba-01</title><g id="Company-Logos" stroke="none" stroke-width="1" fill="none" fill-rule="evenodd"><g id="Artboard" transform="translate(-2766.092, -1325.0734)"><g id="asb-glassfloor-logo-fiba-01" transform="translate(2764, 1323)"><polygon id="Path" transform="translate(106.5, 106.5) scale(-1, 1) rotate(-180) translate(-106.5, -106.5)" points="0 0 213 0 213 213 0 213"></polygon><path d="M210.907959,2.07340552 L210.907959,210.900713 L2.09204131,210.900713 L2.09204131,2.07340552 L210.907959,2.07340552 Z M173.481268,167.224037 C170.8903,167.224037 169.443844,168.160089 169.347509,170.892038 L171.498501,170.892038 C171.374848,169.613774 172.079384,168.716544 173.396436,168.716544 C175.528736,168.716544 175.502855,170.47937 175.456845,172.099847 C175.283676,172.094995 175.107155,172.091102 174.928376,172.088973 L174.568132,172.087302 C171.969468,172.095584 169.057068,172.575961 169.057068,175.891505 C169.057068,178.229478 169.806177,179.895967 172.389955,179.895967 C173.914054,179.895967 174.850081,179.289187 175.456845,177.887266 L175.502855,177.887266 L175.502855,179.663033 L177.678291,179.663033 C177.530194,178.71404 177.439611,177.726225 177.439611,176.757102 L177.439611,170.892038 C177.439611,168.844515 176.620049,167.224037 173.481268,167.224037 Z M115.392973,167.224037 C112.809194,167.224037 111.362738,168.160089 111.266403,170.892038 L113.417396,170.892038 C113.293742,169.613774 113.998279,168.716544 115.322519,168.716544 C117.253614,168.716544 117.408674,170.164334 117.38225,171.641905 L117.374716,171.947569 L117.369988,172.099847 C114.599291,172.022203 110.981713,172.190433 110.981713,175.891505 C110.981713,178.229478 111.730822,179.895967 114.30885,179.895967 C115.825759,179.895967 116.768975,179.289187 117.369988,177.887266 L117.42175,177.887266 L117.42175,179.663033 L119.597185,179.663033 C119.449089,178.71404 119.345565,177.726225 119.345565,176.757102 L119.345565,170.892038 C119.345565,168.844515 118.531754,167.224037 115.392973,167.224037 Z M87.2733495,167.2226 C83.0490077,167.2226 82.6363507,170.161602 82.6363507,173.740455 C82.6363507,179.106578 84.6895707,179.888778 87.2733495,179.888778 C89.8369988,179.888778 91.4976914,178.660839 91.5163832,175.954771 L89.3466991,175.954771 C89.2819968,177.188462 88.5774605,178.274052 87.2287768,178.274052 C85.6845484,178.274052 84.7614621,177.589627 84.7614621,174.191945 L91.6199068,174.191945 L91.6199068,173.152367 C91.6199068,169.127774 90.7543337,167.2226 87.2733495,167.2226 Z M50.4462333,167.2226 C46.2103888,167.2226 45.8092345,170.161602 45.8092345,173.740455 C45.8092345,179.106578 47.8567031,179.888778 50.4462333,179.888778 C52.9983799,179.888778 54.6648238,178.660839 54.6907047,175.954771 L52.5138315,175.954771 C52.4419401,177.188462 51.744593,178.274052 50.3959093,178.274052 C48.8516808,178.274052 47.941535,177.589627 47.941535,174.191945 L54.7798501,174.191945 L54.7798501,173.152367 C54.7798501,169.127774 53.9157149,167.2226 50.4462333,167.2226 Z M145.230802,167.2226 C141.007898,167.2226 140.600992,170.161602 140.600992,173.733265 C140.600992,179.106578 142.648461,179.888778 145.230802,179.888778 C147.7887,179.888778 149.455144,178.660839 149.481025,175.954771 L147.311341,175.954771 C147.239449,177.175521 146.529162,178.274052 145.186229,178.274052 C143.642001,178.274052 142.726104,177.589627 142.726104,174.191945 L149.577359,174.191945 L149.577359,173.152367 C149.577359,169.127774 148.700284,167.2226 145.230802,167.2226 Z M160.757918,162.224571 L158.767963,162.224571 L158.767963,179.655843 L160.757918,179.655843 L160.757918,178.202159 L160.802491,178.202159 C161.481146,179.339512 162.320838,179.888778 163.606258,179.888778 C165.555954,179.888778 167.532969,179.106578 167.532969,173.764898 L167.532261,173.39049 C167.519162,170.443828 167.281583,167.2226 163.502734,167.2226 C162.346719,167.2226 161.507027,167.720102 160.828372,168.689225 L160.757918,168.689225 L160.757918,162.224571 Z M125.656197,167.221162 C122.232726,167.221162 121.457736,169.267248 121.457736,170.54695 C121.457736,174.18907 127.541191,174.240833 127.541191,176.404824 C127.541191,177.657207 126.618104,178.271176 125.436209,178.271176 C123.427562,178.271176 123.40887,176.630569 123.40887,175.927452 L121.160105,175.927452 C121.089652,178.729856 122.730215,179.885902 125.365755,179.885902 C127.78706,179.885902 129.61454,178.852075 129.61454,176.179079 C129.61454,172.452125 123.523896,172.490948 123.523896,170.352838 C123.523896,169.280188 124.350648,168.706479 125.410328,168.706479 C126.664115,168.706479 127.341333,169.396656 127.322641,170.663417 L129.518206,170.663417 C129.686432,168.253551 127.825881,167.221162 125.656197,167.221162 Z M154.086391,164.233272 L152.110814,165.130502 L152.110814,167.462723 L150.115107,167.462723 L150.115107,168.960982 L152.110814,168.960982 L152.110814,177.62845 C152.110814,179.036122 152.963447,179.798192 154.842689,179.798192 C155.494026,179.798192 156.141049,179.663033 156.799575,179.605518 L156.799575,178.081378 L155.908121,178.190656 C154.086391,178.190656 154.086391,177.1899 154.086391,176.414889 L154.086391,168.960982 L156.747813,168.960982 L156.747813,167.462723 L154.086391,167.462723 L154.086391,164.233272 Z M82.1072296,167.228351 C80.1762252,167.228351 79.1625557,167.435404 78.3487444,169.288816 L78.2969826,169.288816 L78.2969826,167.467037 L76.3142163,167.467037 L76.3142163,179.661595 L78.2969826,179.661595 L78.2969826,172.459314 C78.2969826,170.812956 78.8519846,169.140715 81.0475496,169.140715 L81.5766707,169.205419 L82.1072296,169.275875 Z M68.9568449,162.228884 L66.1286351,162.228884 L60.6059336,179.660157 L62.8475091,179.660157 L64.1458688,175.501843 L70.8878493,175.501843 L72.1344471,179.660157 L74.6276428,179.660157 L68.9568449,162.228884 Z M27.4869785,162.228884 L25.1231875,162.228884 L29.3662211,179.660157 L32.0650263,179.660157 L35.5977724,164.540976 L35.6495342,164.540976 L38.9507898,179.660157 L41.6567841,179.660157 L46.267902,162.228884 L43.9429324,162.228884 L40.3972458,177.335124 L40.3512353,177.335124 L37.1865735,162.228884 L34.3195423,162.228884 L30.8126772,177.335124 L30.7681045,177.335124 L27.4869785,162.228884 Z M133.496679,162.224571 L131.519664,162.224571 L131.519664,179.655843 L133.496679,179.655843 L133.496679,172.815906 L133.548441,172.815906 L137.894998,179.655843 L140.406885,179.655843 L135.620352,172.686498 L139.676468,167.455534 L137.260915,167.455534 L133.548441,172.72532 L133.496679,172.72532 L133.496679,162.224571 Z M103.949291,162.224571 L98.2856825,162.224571 L98.2856825,179.655843 L103.878838,179.655843 C105.861604,179.655843 109.1226,179.223045 109.1226,174.746962 C109.1226,172.357226 108.031288,170.871908 105.543844,170.57427 L105.543844,170.452051 C107.792608,169.954549 108.541717,168.489361 108.541717,166.32537 C108.541717,165.983157 108.443945,164.94933 107.837181,164.006089 C107.184407,163.031215 106.370595,162.224571 103.949291,162.224571 Z M182.264966,162.224571 L180.282199,162.224571 L180.282199,179.655843 L182.264966,179.655843 L182.264966,162.224571 Z M187.140644,162.224571 L185.157878,162.224571 L185.157878,179.655843 L187.140644,179.655843 L187.140644,162.224571 Z M175.456845,173.598106 C175.650952,177.524923 174.152734,178.281242 172.950709,178.281242 C171.620717,178.281242 171.032645,177.215781 171.032645,176.039605 C171.032645,173.93993 172.701955,173.653291 174.33836,173.609256 L174.664698,173.603218 C174.93544,173.600107 175.202116,173.600826 175.456845,173.598106 Z M117.369988,173.598106 C117.569846,177.524923 116.071628,178.281242 114.863852,178.281242 C113.539611,178.281242 112.958728,177.215781 112.958728,176.039605 C112.958728,173.450005 115.496497,173.618236 117.369988,173.598106 Z M163.044066,168.837325 C165.169178,168.837325 165.459619,170.523944 165.459619,173.785029 L165.459194,174.095936 C165.451964,175.895557 165.321827,178.279804 162.979364,178.279804 C160.970238,178.279804 160.76257,176.018481 160.752748,174.179716 L160.752833,173.840555 C160.754184,173.563139 160.757918,173.300135 160.757918,173.061781 C160.757918,171.447055 160.854253,168.837325 163.044066,168.837325 Z M102.870919,171.491629 C105.131187,171.491629 106.849392,171.970439 106.849392,174.746962 C106.849392,176.039605 106.0097,177.717597 103.63872,177.717597 L100.499939,177.717597 L100.499939,171.491629 Z M67.4845079,164.28216 L70.2810855,173.570786 L64.6936817,173.570786 L67.4327461,164.28216 L67.4845079,164.28216 Z M87.0792426,168.707917 C88.5328878,168.707917 89.5149251,169.134964 89.5149251,172.693687 L84.7614621,172.693687 C84.7873431,169.321887 85.8268935,168.707917 87.0792426,168.707917 Z M50.2463751,168.707917 C51.6928311,168.707917 52.6820575,169.134964 52.6820575,172.693687 L47.941535,172.693687 C47.9544755,169.321887 48.9868368,168.707917 50.2463751,168.707917 Z M145.038133,168.707917 C146.484589,168.707917 147.479567,169.134964 147.479567,172.686498 L142.726104,172.686498 C142.744795,169.321887 143.778595,168.707917 145.038133,168.707917 Z M103.63872,164.148438 C105.499271,164.148438 106.318834,165.343306 106.318834,166.78405 C106.318834,168.46348 105.47339,169.534691 103.736493,169.560573 L100.499939,169.560573 L100.499939,164.148438 Z M156.307837,32.1205311 C140.691576,32.1205311 138.070413,44.3007102 138.070413,49.1190055 L138.070413,96.2034279 L150.522013,96.2034279 L150.522013,75.0768348 L162.089348,75.0768348 L162.089348,96.2034279 L174.540948,96.2034279 L174.540948,49.1190055 C174.540948,44.3007102 171.912596,32.1205311 156.307837,32.1205311 Z M72.1473876,33.5210145 L42.6833941,33.5210145 C39.5316727,33.5210145 38.3037667,34.7417643 38.3037667,37.9065116 L38.3037667,96.2019901 L50.7568044,96.2019901 L50.7568044,70.4325215 L68.5427501,70.4325215 L68.5427501,58.7670992 L50.7568044,58.7670992 L50.7568044,45.6177972 L72.1473876,45.6177972 L72.1473876,33.5210145 Z M88.7974484,33.5210145 L80.7369785,33.5210145 C77.5852572,33.5210145 76.3458485,34.7475158 76.3458485,37.9065116 L76.3458485,96.2019901 L88.7974484,96.2019901 L88.7974484,33.5210145 Z M113.604313,33.5109494 L99.4992102,33.5109494 C96.3402997,33.5109494 95.1066424,34.7374507 95.1066424,37.8964465 L95.1066424,96.191925 L114.133435,96.191925 C124.829445,96.191925 132.721689,90.2233353 132.721689,78.307724 C132.721689,69.8012975 128.160895,65.7781431 124.829445,64.6278487 C127.805751,63.2388683 132.281713,59.726157 132.281713,50.0766255 C132.281713,41.3128207 126.320474,33.5109494 113.604313,33.5109494 Z M112.816383,69.8012975 C117.11693,69.8012975 120.178068,72.3463236 120.178068,77.6161095 C120.178068,82.8743925 117.11693,85.4179808 112.816383,85.4179808 L107.293682,85.4179808 L107.293682,69.8012975 L112.816383,69.8012975 Z M156.307837,43.4221729 C161.216586,43.4221729 162.089348,47.8925042 162.089348,50.5266782 L162.089348,63.4186018 L150.522013,63.4186018 L150.522013,50.5266782 C150.522013,47.8925042 151.393337,43.4221729 156.307837,43.4221729 Z M112.731551,44.1094737 C117.033536,44.1094737 120.01128,46.6602514 120.01128,51.7431144 C120.01128,56.8331668 117.033536,59.3710037 112.731551,59.3710037 L107.293682,59.3710037 L107.293682,44.1094737 L112.731551,44.1094737 Z" id="Combined-Shape" fill="#000000"></path></g></g></g></svg> 