<?xml version="1.0" encoding="UTF-8"?> <svg xmlns="http://www.w3.org/2000/svg" xmlns:xlink="http://www.w3.org/1999/xlink" width="640px" height="137px" viewBox="0 0 640 137" version="1.1"><title>asb-glassfloor-logo-microsoft-01</title><g id="Company-Logos" stroke="none" stroke-width="1" fill="none" fill-rule="evenodd"><g id="Artboard" transform="translate(-4260, -1355)" fill="#000000" fill-rule="nonzero"><g id="asb-glassfloor-logo-microsoft-01" transform="translate(4260, 1355)"><g id="Group" transform="translate(320, 68.5) scale(-1, 1) rotate(-180) translate(-320, -68.5)"><polygon id="Path" points="0 104.5 0 72 32.5 72 65 72 65 104.5 65 137 32.5 137 0 137"></polygon><path d="M71.85,136.65 C71.65,136.5 71.5,121.85 71.5,104.15 L71.5,72 L104,72 L136.5,72 L136.5,104.5 L136.5,137 L104.35,137 C86.65,137 72,136.85 71.85,136.65 Z" id="Path"></path><path d="M593.532047,115.372326 C588.285665,114.220587 582.73949,110.31469 580.39111,106.008188 C578.342522,102.202442 577.543074,98.2965452 577.543074,92.2373971 L577.543074,86.8793075 L572.696416,86.7290807 L567.799793,86.5788539 L567.649897,80.9703862 L567.5,75.311843 L572.54652,75.311843 L577.543074,75.311843 L577.543074,51.5259312 L577.543074,27.7400193 L584.538249,27.7400193 L591.533425,27.7400193 L591.533425,51.5259312 L591.533425,75.311843 L601.776361,75.311843 L612.019297,75.311843 L612.019297,60.1890106 C612.069263,42.1117176 612.419021,38.7065766 614.617505,34.2498478 C616.46623,30.6444043 619.364232,28.2407754 623.161613,27.1891877 C626.359407,26.3379024 633.304618,26.4881292 636.902136,27.4896413 L640,28.3910022 L640,33.9994698 L640,39.6079374 L637.151964,38.656501 C632.555134,37.1041572 628.957615,38.0555937 627.158856,41.4106592 C626.359407,42.8127761 626.259476,44.8658758 626.10958,59.1874985 L625.959683,75.311843 L632.954859,75.311843 L640,75.311843 L640,81.0705374 L640,86.8292319 L633.004824,86.8292319 L626.009649,86.8292319 L626.009649,95.3921601 L626.009649,103.955088 L624.660579,103.604559 C623.86113,103.454332 620.713301,102.502896 617.665403,101.551459 L612.019297,99.7988133 L612.019297,93.1888336 L612.019297,86.5788539 L601.726396,86.7290807 L591.433494,86.8793075 L591.583391,92.7381531 C591.783253,99.1478304 592.432805,101.000628 595.130944,103.003652 C596.979669,104.355693 601.276706,104.706222 604.224673,103.70471 L606.523088,102.903501 L606.523088,108.862498 C606.523088,113.920134 606.423156,114.821494 605.673673,115.071872 C604.174707,115.67278 595.830462,115.823007 593.532047,115.372326 Z" id="Path"></path><path d="M282.373476,110.014999 C279.757622,108.413806 278.5,106.212166 278.5,103.159893 C278.5,98.2562401 282.222561,95.103892 287.605183,95.5542275 C292.182927,95.9545256 295,98.8566873 295,103.20993 C295,106.212166 293.993902,107.963471 291.227134,109.864887 C289.064024,111.315968 284.637195,111.416042 282.373476,110.014999 Z" id="Path"></path><path d="M177.5,68.4749848 L177.5,27.4999695 L184.25,27.4999695 L191,27.4999695 L190.9,58.9807739 C190.8,76.3202011 190.9,90.4615783 191.05,90.4615783 C191.2,90.4615783 197,76.2702316 204,58.9807739 L216.7,27.45 L221.7,27.5999086 L226.7,27.7498172 L239.05,58.8808349 C245.85,76.0203839 251.55,90.1617611 251.7,90.3116697 C251.85,90.5115478 252,76.4201402 252,59.080713 L252,27.4999695 L259,27.4999695 L266,27.4999695 L266,68.4749848 L266,109.45 L256.35,109.45 L246.7,109.45 L235.25,81.3671237 C228.95,65.8765692 223.35,52.2348873 222.85,51.0356185 L221.85,48.7869896 L217.5,59.7802864 C215.1,65.7766301 209.7,79.418312 205.5,90.1117916 L197.85,109.45 L187.65,109.45 L177.5,109.45 L177.5,68.4749848 Z" id="Path"></path><path d="M325.896187,86.7970867 C315.775263,84.4998898 307.848037,77.2587259 304.457776,67.0711573 C302.912217,62.5766417 302.513362,52.7386465 303.660068,47.8945575 C305.454912,40.3537592 310.8893,33.0626562 317.171253,29.7666781 C324.948909,25.7216141 336.565536,25.3221016 345.190757,28.7179578 L348.08245,29.8665562 L348.331733,36.2587561 C348.481304,39.7544904 348.53116,42.601017 348.481304,42.601017 C348.431447,42.601017 346.935744,41.801992 345.1409,40.8531498 C336.81482,36.2088171 327.491604,37.007842 322.057216,42.7508342 C317.968961,47.0455935 316.373544,53.2380371 317.420536,60.5291402 C318.417672,67.4706698 322.406213,72.8640884 328.189599,75.0114681 C333.623986,77.0589696 341.351786,76.1101275 346.337463,72.7142712 C347.284741,72.1150025 348.182163,71.5656728 348.331733,71.5656728 C348.481304,71.5656728 348.53116,74.5620165 348.431447,78.2575071 L348.281877,84.9493414 L344.941473,86.0480008 C340.603934,87.4962335 330.782151,87.895746 325.896187,86.7970867 Z" id="Path"></path><path d="M385.5,86.7716141 C380.6,86.0726631 376.75,83.226934 374.3,78.484052 L373.05,76.0876486 L373,81.229931 L373,86.3722135 L366.15,86.2224383 L359.25,86.0726631 L359.1,56.7666454 L359,27.4107027 L365.95,27.4107027 L372.95,27.4107027 L373.1,45.5335041 L373.25,63.6063804 L374.65,66.6018847 C376.85,71.2449165 379.4,73.5913949 383.2,74.2903459 C385.75,74.7396716 389.9,74.1904958 392.1,73.0422191 L393.5,72.293343 L393.5,79.0332278 C393.5,83.8759599 393.3,85.8729628 392.9,86.1725132 C391.85,86.7716141 387.9,87.1210896 385.5,86.7716141 Z" id="Path"></path><path d="M416.681129,86.886645 C405.834444,84.4377101 398.136796,76.8410139 395.387636,65.8957741 C394.237988,61.3477521 394.188003,52.2017298 395.337652,47.4537947 C397.686934,37.5081202 405.184642,29.9614023 415.231572,27.3125543 C419.530258,26.2130325 428.277585,26.2130325 432.87618,27.4125109 C441.823446,29.6615328 449.071231,35.958794 452.170284,44.0552728 C453.969734,49.0031209 454.76949,54.3507951 454.419597,59.8983824 C453.919749,68.9444482 451.520483,74.7919051 446.422041,79.9396663 C443.223018,83.0882969 440.923721,84.5376666 436.125187,86.2369276 C432.426318,87.5863407 421.329709,87.9361885 416.681129,86.886645 Z M431.06719,74.5241221 C434.39071,73.0329514 437.366995,69.5535531 438.55751,65.9250377 C439.301581,63.638576 439.5,61.6006427 439.5,56.3318396 C439.450395,50.5162738 439.301581,49.2239259 438.309486,46.7386414 C436.870948,43.0604203 434.787548,40.7242529 431.612843,39.0839651 C429.430233,37.9407343 428.438138,37.7916172 424.618571,37.7916172 C419.7077,37.7916172 417.029043,38.6366139 414.052757,41.1218984 C409.389909,45.1480593 407.256905,54.7412575 409.241095,63.1912248 C410.630029,68.9570848 413.209476,72.4364831 417.673905,74.5241221 C421.195843,76.2141156 427.545252,76.2141156 431.06719,74.5241221 Z" id="Shape"></path><path d="M475.574289,86.9376575 C469.70478,85.286168 464.481912,81.1324217 462.442506,76.5282692 C460.801034,72.7748839 460.801034,65.9687454 462.492248,62.4155407 C464.531654,58.2117492 466.819767,56.4101243 475.624031,52.1562877 C480.051034,50.0043468 484.080103,47.7523157 484.577519,47.2018192 C485.870801,45.7505102 486.218992,41.997125 485.174419,40.3956806 C482.339147,36.0417538 471.793928,36.49216 463.885013,41.3465382 L461,43.098118 L461,36.3420246 L461,29.6359763 L462.790698,28.8852993 C468.312016,26.583223 478.956718,25.8325459 484.776486,27.3339 C491.193152,28.9853895 495.918605,32.4885491 498.306202,37.3929725 C499.301034,39.4948682 499.5,40.6459063 499.5,44.6495172 C499.5,48.5530379 499.350775,49.7541212 498.455426,51.4556558 C495.968346,56.2099438 492.784884,58.6121103 483.831395,62.6657664 C477.265504,65.5683843 475.474806,67.1197835 475.076873,70.1224917 C474.131783,76.9786754 484.428295,78.9804808 494.476098,73.8758769 L496.863695,72.6247485 L496.71447,79.030526 L496.565245,85.3862583 L493.580749,86.3371159 C489.501938,87.6382894 479.205426,87.9886054 475.574289,86.9376575 Z" id="Path"></path><path d="M527.597885,86.5650813 C520.556665,84.8083604 514.414324,80.5420382 510.818808,74.9205313 C505.625284,66.7392312 504.476716,53.3881524 508.12217,43.5003234 C512.616566,31.4040452 525.350687,24.4775457 539.782691,26.2844586 C548.022417,27.2882991 552.516813,29.3461722 557.560524,34.5159508 C563.652927,40.6895699 566,47.0639572 566,57.4035144 C566,67.4921116 563.652927,74.1174589 558.159776,79.6887738 C554.464384,83.3527916 551.268369,85.1597045 546.024908,86.5148892 C541.081072,87.8198819 532.591658,87.8198819 527.597885,86.5650813 Z M543.586589,74.8783942 C546.391033,73.3648967 548.995161,70.3379017 550.347304,66.8568574 C551.298812,64.3343616 551.499129,62.9217639 551.499129,57.3218231 C551.549208,46.9795901 549.445875,42.1363981 543.586589,39.159853 C540.932382,37.8481552 540.081033,37.6968054 536.32508,37.6968054 C530.916509,37.7472554 527.561191,39.0589532 524.756746,42.2877479 C521.501587,46.0714916 520.550079,49.1993865 520.5,56.5650744 C520.5,66.6550577 522.753572,71.5991496 528.863255,74.7270444 C531.868017,76.2405419 532.218572,76.2909919 536.775795,76.1396421 C540.381509,75.9882924 542.034128,75.6855929 543.586589,74.8783942 Z" id="Shape"></path><polygon id="Path" points="279.5 56.9250212 279.5 27.45 286.5 27.45 293.5 27.45 293.4 56.8251058 293.25 86.150254 286.4 86.300127 279.5 86.45"></polygon><polygon id="Path" points="0 32.5 0 0 32.5 0 65 0 65 32.5 65 65 32.5 65 0 65"></polygon><polygon id="Path" points="71.6 32.65 71.75 0.25 104.15 0.1 136.5 0 136.5 32.5 136.5 65 104 65 71.5 65"></polygon></g></g></g></g></svg> 