<?xml version="1.0" encoding="UTF-8"?> <svg xmlns="http://www.w3.org/2000/svg" xmlns:xlink="http://www.w3.org/1999/xlink" width="400px" height="143px" viewBox="0 0 400 143" version="1.1"><title>asb-glassfloor-logo-nike-01</title><g id="Company-Logos" stroke="none" stroke-width="1" fill="none" fill-rule="evenodd"><g id="Artboard" transform="translate(-3759, -1358)" fill="#000000" fill-rule="nonzero"><g id="asb-glassfloor-logo-nike-01" transform="translate(3759, 1358)"><path d="M14.8291623,133.119658 C13.3740625,131.958948 9.90671883,128.478785 8.74345495,127.010966 C5.65162326,123.111185 3.54958747,119.315767 2.14754761,115.104784 C-2.16673196,102.142255 0.0536718145,85.1325287 8.49855897,66.4646347 C15.7291583,50.482567 26.8862851,34.6315447 46.3515632,12.6779691 C49.2189069,9.44753833 57.7576661,0 57.8127701,0 C57.8331701,0 57.3678701,0.808620815 56.7821622,1.79330614 C51.7209467,10.2971258 47.3903351,20.3137843 45.0311593,28.9855233 C41.2413677,42.8999564 41.6985077,54.8409662 46.3699312,64.1001621 C49.5923749,70.4790901 55.1168543,76.004338 61.3290897,79.0586641 C72.2045846,84.4037548 88.127007,84.8459625 107.571881,80.3524655 C108.910657,80.0413031 175.249326,62.3764712 254.992058,41.0964186 C334.734794,19.8142795 399.9898,2.4156308 400,2.4299551 C400.0224,2.44841219 214.734982,81.9799387 118.549412,123.240144 C103.316782,129.772587 99.2433299,131.42257 92.0821067,133.94465 C73.7760085,140.393153 57.3780781,143.470029 44.1229954,142.941875 C32.2046446,142.466926 22.4536376,139.195569 14.8291623,133.119658 Z" id="Path"></path></g></g></g></svg> 