<?xml version="1.0" encoding="UTF-8"?> <svg xmlns="http://www.w3.org/2000/svg" xmlns:xlink="http://www.w3.org/1999/xlink" width="503px" height="149px" viewBox="0 0 503 149" version="1.1"><title>asb-glassfloor-logo-oxford-university-01</title><g id="Company-Logos" stroke="none" stroke-width="1" fill="none" fill-rule="evenodd"><g id="Artboard" transform="translate(-3099, -1355)"><g id="asb-glassfloor-logo-oxford-university-01" transform="translate(3099, 1355)"><g id="Group" transform="translate(41.6851, 48.2612)" stroke="#000000" stroke-width="0.79275"><path d="M20.2792295,6.02324406 C20.2792295,3.68923699 19.5281469,1.88226377 17.800657,0.828196059 C16.7491414,0.225871652 14.6461102,0 12.843512,0 L0,0 L0,25.97524 L13.9701359,25.97524 C17.199791,25.97524 19.7534717,26.7281455 19.9787965,29.5891865 L20.2792295,29.5891865 L20.2792295,6.02324406 Z" id="Path"></path></g><g id="Group" transform="translate(61.9643, 48.2612)" stroke="#000000" stroke-width="0.79275"><path d="M0,6.02324406 C0,3.68923699 0.751082574,1.88226377 2.4785725,0.828196059 C3.5300881,0.225871652 6.08376885,0 7.81125877,0 L20.7298791,0 L20.7298791,25.97524 L6.68463491,25.97524 C3.45497984,25.97524 0.450649545,26.7281455 0.30043303,29.5891865 L0,29.5891865 L0,6.02324406 Z" id="Path"></path></g><g id="Group" fill="#000000" fill-rule="nonzero"><path d="M85.3980887,50.2187974 L85.3980887,77.6998484 L65.5695087,77.6998484 L65.344184,78.3021728 C64.9686427,79.1303689 64.3677766,79.9585649 62.1896372,79.9585649 C60.0114977,79.9585649 59.4106316,79.1303689 59.0350903,78.3021728 L58.8097656,77.6998484 L38.9811856,77.6998484 L38.9811856,50.2187974 L37.1785874,50.2187974 L37.1785874,51.0469934 L35.4510975,50.5199596 C35.2257727,49.8423446 34.6249067,49.3153108 33.8738241,49.3153108 C32.972525,49.3153108 32.2214424,50.0682163 32.2214424,50.9717029 C32.2214424,51.8751895 32.972525,52.628095 33.8738241,52.628095 C34.2493654,52.628095 34.6249067,52.4775139 34.9253397,52.2516422 L37.1785874,52.9292572 L37.1785874,55.1126832 L35.4510975,54.811521 C35.2257727,54.2091966 34.6249067,53.8327438 33.9489324,53.8327438 C33.0476333,53.8327438 32.2965507,54.5856493 32.2965507,55.4891359 C32.2965507,56.3926225 33.0476333,57.145528 33.9489324,57.145528 C34.3995819,57.145528 34.8502314,56.9196564 35.1506645,56.6184942 L37.1785874,56.9949469 L37.1785874,59.2536635 L35.4510975,59.1783729 C35.1506645,58.7266296 34.6249067,58.3501769 34.0240406,58.3501769 C33.1227415,58.3501769 32.371659,59.1030824 32.371659,60.006569 C32.371659,60.9100556 33.1227415,61.6629611 34.0240406,61.6629611 C34.5497984,61.6629611 35.0755562,61.3617989 35.3759892,60.9853461 L37.1785874,61.0606367 L37.1785874,63.4699343 L35.3759892,63.5452249 C35.0755562,63.0934816 34.6249067,62.8676099 34.0240406,62.8676099 C33.1227415,62.8676099 32.371659,63.6205154 32.371659,64.524002 C32.371659,65.4274886 33.1227415,66.1803941 34.0240406,66.1803941 C34.6249067,66.1803941 35.1506645,65.8792319 35.3759892,65.4274886 L37.1034792,65.3521981 L37.1034792,67.6109146 L35.1506645,67.9120768 C34.8502314,67.6109146 34.3995819,67.385043 33.9489324,67.385043 C33.0476333,67.385043 32.2965507,68.1379485 32.2965507,69.0414351 C32.2965507,69.9449217 33.0476333,70.6978272 33.9489324,70.6978272 C34.6249067,70.6978272 35.2257727,70.3213744 35.4510975,69.71905 L37.1034792,69.4178878 L37.1034792,71.6013138 L34.9253397,72.2789288 C34.6249067,72.0530571 34.2493654,71.902476 33.8738241,71.902476 C32.972525,71.902476 32.2214424,72.6553815 32.2214424,73.5588681 C32.2214424,74.4623547 32.972525,75.2152602 33.8738241,75.2152602 C34.6249067,75.2152602 35.2257727,74.6882264 35.4510975,74.0106114 L37.1034792,73.4835776 L37.1034792,75.591713 L34.7000149,76.6457807 C34.4746902,76.4951996 34.1742571,76.3446185 33.7987158,76.3446185 C32.8974168,76.3446185 32.1463342,77.097524 32.1463342,78.0010106 C32.1463342,78.9044972 32.8974168,79.6574027 33.7987158,79.6574027 C34.6249067,79.6574027 35.300881,79.0550783 35.3759892,78.3021728 L37.0283709,77.5492673 L37.0283709,79.5068216 L57.75825,79.5068216 C58.5844408,80.9373421 60.0114977,81.6902476 62.1896372,81.6902476 C64.3677766,81.6902476 65.7948335,80.9373421 66.6210243,79.5068216 L87.1255786,79.5068216 L87.1255786,50.2187974 L85.3980887,50.2187974 L85.3980887,50.2187974 Z" id="Path"></path><path d="M48.6701508,41.1086407 C44.5391967,41.1086407 41.1593251,41.7862557 41.1593251,42.5391612 C41.1593251,43.3673573 44.5391967,43.9696817 48.6701508,43.9696817 C52.801105,43.9696817 56.1809766,43.2920667 56.1809766,42.5391612 C56.1809766,41.7109651 52.8762132,41.1086407 48.6701508,41.1086407 Z" id="Path"></path><path d="M59.0350903,32.0737746 L54.6788114,35.1606872 L54.6037032,35.4618494 L55.6552188,35.9135927 C55.8805435,35.9888833 55.8805435,36.2147549 55.730327,36.2900455 L53.0264297,38.6240526 L52.801105,38.6240526 L50.8482903,35.7630116 C50.6980738,35.6124305 50.773182,35.3865589 50.9985068,35.3865589 L52.2753472,35.1606872 L52.2753472,34.859525 L48.8954756,30.1162203 L48.3697178,30.1162203 L44.9898462,34.859525 L44.9898462,35.1606872 L46.2666866,35.3865589 C46.4920113,35.4618494 46.5671196,35.6124305 46.4169031,35.7630116 L44.4640884,38.6240526 L44.2387636,38.6240526 L41.6850829,36.2900455 C41.6099746,36.2147549 41.6099746,36.0641738 41.7601911,35.9135927 L42.8117067,35.4618494 L42.7365985,35.1606872 L38.230103,32.0737746 L37.8545617,32.2243557 L40.4833508,40.3557352 C41.8352994,39.7534108 44.9147379,39.3016675 48.5199343,39.3016675 C52.1251307,39.3016675 55.2045692,39.7534108 56.5565178,40.3557352 L59.1853069,32.2243557 L59.0350903,32.0737746 Z" id="Path"></path><path d="M62.1896372,95.4684184 C58.058683,95.4684184 54.6788114,96.1460334 54.6788114,96.8989389 C54.6788114,97.7271349 58.058683,98.3294593 62.1896372,98.3294593 C66.3205913,98.3294593 69.7004629,97.6518444 69.7004629,96.8989389 C69.6253546,96.1460334 66.3205913,95.4684184 62.1896372,95.4684184 Z" id="Path"></path><path d="M72.4794684,86.4335523 L68.1231895,89.5204649 L68.1231895,89.8216271 L69.1747051,90.2733704 C69.4000299,90.3486609 69.4000299,90.5745326 69.2498133,90.6498231 L66.5459161,92.9838302 L66.3205913,92.9838302 L64.3677766,90.1227893 C64.2175601,89.9722082 64.2926684,89.7463365 64.5179931,89.7463365 L65.7948335,89.5204649 L65.7948335,89.2193027 L62.4149619,84.475998 L61.8892041,84.475998 L58.5093325,89.2193027 L58.5093325,89.5204649 L59.7861729,89.7463365 C60.0114977,89.8216271 60.0866059,89.9722082 59.9363894,90.1227893 L57.9835747,92.9838302 L57.75825,92.9838302 L55.2045692,90.6498231 C55.129461,90.5745326 55.129461,90.3486609 55.2796775,90.2733704 L56.3311931,89.8216271 L56.3311931,89.5204649 L51.8246976,86.4335523 L51.4491563,86.5841334 L54.0779453,94.7155129 C55.429894,94.1131885 58.5093325,93.6614452 62.1145289,93.6614452 C65.7197253,93.6614452 68.7991638,94.1131885 70.1511124,94.7155129 L72.7799014,86.5841334 L72.4794684,86.4335523 Z" id="Path"></path><path d="M75.558907,41.1086407 C71.4279528,41.1086407 68.0480812,41.7862557 68.0480812,42.5391612 C68.0480812,43.3673573 71.4279528,43.9696817 75.558907,43.9696817 C79.6898611,43.9696817 83.0697327,43.2920667 83.0697327,42.5391612 C83.0697327,41.7109651 79.6898611,41.1086407 75.558907,41.1086407 Z" id="Path"></path><path d="M85.9238465,32.0737746 L81.5675676,35.1606872 L81.4924593,35.4618494 L82.5439749,35.9135927 C82.7692997,35.9888833 82.7692997,36.2147549 82.6190832,36.2900455 L79.9151859,38.6240526 L79.6898611,38.6240526 L77.7370464,35.7630116 C77.5868299,35.6124305 77.6619382,35.3865589 77.887263,35.3865589 L79.1641033,35.1606872 L79.1641033,34.859525 L75.7842317,30.1162203 L75.2584739,30.1162203 L71.8786024,34.859525 L71.8786024,35.1606872 L73.1554427,35.3865589 C73.3807675,35.4618494 73.4558758,35.6124305 73.3056593,35.7630116 L71.3528446,38.6240526 L71.1275198,38.6240526 L68.573839,36.2900455 C68.4987308,36.2147549 68.4987308,36.0641738 68.6489473,35.9135927 L69.7004629,35.4618494 L69.6253546,35.1606872 L65.1188592,32.0737746 L64.7433179,32.2243557 L67.3721069,40.3557352 C68.7240555,39.7534108 71.8034941,39.3016675 75.4086905,39.3016675 C79.0138868,39.3016675 82.0933254,39.7534108 83.445274,40.3557352 L86.074063,32.2243557 L85.9238465,32.0737746 Z" id="Path"></path><path d="M45.2902792,52.4775139 C45.9662535,52.4775139 46.5671196,52.628095 46.9426609,53.0045478 C47.2430939,53.2304194 47.4684187,53.6821627 47.4684187,54.2091966 C47.4684187,55.639717 46.4169031,56.2420414 45.0649545,56.2420414 L43.5627893,56.2420414 L43.5627893,56.0161698 C44.0134389,56.0161698 44.0134389,55.9408792 44.0134389,55.3385548 L44.0134389,53.3810005 C44.0134389,52.7786761 43.9383306,52.7033855 43.5627893,52.7033855 L43.5627893,52.4775139 L45.2902792,52.4775139 Z M45.0649545,55.2632643 C45.0649545,55.7902981 45.215171,55.8655887 45.4404957,55.8655887 C45.9662535,55.8655887 46.4169031,55.3385548 46.4169031,54.2844871 C46.4169031,53.0798383 45.816037,52.7033855 45.2902792,52.7033855 C45.1400627,52.7033855 45.0649545,52.7033855 45.0649545,52.7786761 C45.0649545,52.7786761 45.0649545,52.9292572 45.0649545,53.0798383 L45.0649545,55.2632643 Z" id="Shape"></path><path d="M51.8246976,54.2844871 C51.8246976,55.4891359 50.9985068,56.2420414 49.8718829,56.2420414 C48.7452591,56.2420414 47.9941765,55.4138454 47.9941765,54.3597777 C47.9941765,53.4562911 48.5950426,52.3269328 49.9469912,52.3269328 C50.9985068,52.3269328 51.8246976,53.1551289 51.8246976,54.2844871 Z M49.0456921,54.133906 C49.0456921,55.1879737 49.4212334,55.9408792 50.0220994,55.9408792 C50.5478572,55.9408792 50.773182,55.4891359 50.773182,54.4350682 C50.773182,53.30571 50.3976407,52.628095 49.8718829,52.628095 C49.4212334,52.628095 49.0456921,53.1551289 49.0456921,54.133906 Z" id="Shape"></path><path d="M56.8569509,52.4775139 L56.8569509,52.7033855 C56.4063013,52.7786761 56.4063013,52.7786761 56.4063013,53.3810005 L56.4814096,55.2632643 C56.4814096,55.8655887 56.4814096,55.9408792 56.9320591,55.9408792 L56.9320591,56.1667509 L55.129461,56.1667509 L55.129461,55.9408792 C55.5801105,55.8655887 55.5801105,55.8655887 55.5801105,55.2632643 L55.5801105,53.2304194 L55.5801105,53.2304194 L54.4534866,56.0914603 L54.1530536,56.0914603 L53.101538,53.4562911 L53.101538,53.4562911 L53.0264297,54.7362304 C53.0264297,55.2632643 53.0264297,55.4891359 53.0264297,55.7150076 C53.0264297,55.9408792 53.1766463,56.0161698 53.5521875,56.0161698 L53.5521875,56.2420414 L52.1251307,56.2420414 L52.1251307,56.0161698 C52.4255637,56.0161698 52.5006719,55.9408792 52.5757802,55.7150076 C52.5757802,55.5644265 52.6508885,55.2632643 52.6508885,54.7362304 L52.7259967,53.6068722 C52.801105,52.8539666 52.7259967,52.8539666 52.2753472,52.7786761 L52.2753472,52.5528044 L53.6272958,52.5528044 L54.6037032,54.811521 L55.5050022,52.5528044 L56.8569509,52.5528044 L56.8569509,52.4775139 Z" id="Path"></path><path d="M58.7346573,55.2632643 C58.7346573,55.8655887 58.8097656,55.9408792 59.1853069,55.9408792 L59.1853069,56.1667509 L57.3076004,56.1667509 L57.3076004,55.9408792 C57.6831417,55.9408792 57.75825,55.8655887 57.75825,55.2632643 L57.75825,53.3810005 C57.75825,52.7786761 57.6831417,52.7033855 57.3076004,52.7033855 L57.3076004,52.4775139 L59.1853069,52.4775139 L59.1853069,52.7033855 C58.8097656,52.7033855 58.7346573,52.7786761 58.7346573,53.3810005 L58.7346573,55.2632643 Z" id="Path"></path><path d="M49.4963416,63.0934816 L48.9705838,63.0934816 L46.8675526,60.3830217 L46.8675526,60.3830217 L46.8675526,61.4370894 C46.8675526,62.0394138 46.8675526,62.340576 46.9426609,62.5664477 C46.9426609,62.7923194 47.0928774,62.8676099 47.4684187,62.8676099 L47.4684187,63.0934816 L46.0413618,63.0934816 L46.0413618,62.8676099 C46.2666866,62.8676099 46.4169031,62.7923194 46.4920113,62.5664477 C46.4920113,62.4158666 46.5671196,62.0394138 46.5671196,61.4370894 L46.5671196,60.3830217 C46.5671196,59.9312784 46.5671196,59.8559879 46.4169031,59.7054068 C46.3417948,59.5548257 46.1915783,59.5548257 45.9662535,59.5548257 L45.9662535,59.328954 L47.2430939,59.328954 L49.1208004,61.7382516 L49.1208004,61.7382516 L49.1208004,60.9853461 C49.1208004,60.3830217 49.1208004,60.0818595 49.0456921,59.8559879 C49.0456921,59.6301162 48.8954756,59.5548257 48.5199343,59.5548257 L48.5199343,59.328954 L49.9469912,59.328954 L49.9469912,59.5548257 C49.6465582,59.5548257 49.4963416,59.6301162 49.4963416,59.8559879 C49.4963416,60.006569 49.4212334,60.3830217 49.4212334,60.9853461 L49.4212334,63.0934816 L49.4963416,63.0934816 Z" id="Path"></path><path d="M51.8246976,63.0934816 C51.4491563,62.0394138 50.9233985,60.6841839 50.6980738,60.0818595 C50.472749,59.6301162 50.3976407,59.5548257 50.0972077,59.5548257 L50.0972077,59.328954 L51.9749141,59.328954 L51.9749141,59.5548257 L51.7495894,59.5548257 C51.5242646,59.5548257 51.5242646,59.6301162 51.5993729,59.8559879 C51.6744811,60.1571501 52.1251307,61.2865083 52.3504554,61.8888327 C52.5006719,61.4370894 52.8762132,60.3077312 52.9513215,60.006569 C53.101538,59.6301162 53.0264297,59.6301162 52.801105,59.5548257 L52.6508885,59.5548257 L52.6508885,59.328954 L54.0028371,59.328954 L54.0028371,59.5548257 C53.7024041,59.6301162 53.6272958,59.6301162 53.401971,60.1571501 C53.401971,60.2324406 52.6508885,61.9641233 52.2753472,63.0934816 L51.8246976,63.0934816 L51.8246976,63.0934816 Z" id="Path"></path><path d="M54.3783784,61.8888327 C54.5285949,62.1899949 54.8290279,62.8676099 55.429894,62.8676099 C55.730327,62.8676099 55.9556518,62.6417383 55.9556518,62.2652855 C55.9556518,61.9641233 55.730327,61.7382516 55.3547857,61.5876705 L55.2796775,61.51238 C54.8290279,61.2865083 54.3032701,60.9853461 54.3032701,60.3830217 C54.3032701,59.7054068 54.7539197,59.1783729 55.6552188,59.1783729 C55.8054353,59.1783729 56.03076,59.1783729 56.1809766,59.2536635 C56.3311931,59.2536635 56.4063013,59.328954 56.4814096,59.328954 C56.4814096,59.5548257 56.5565178,59.8559879 56.6316261,60.2324406 L56.4063013,60.3077312 C56.2560848,59.9312784 56.1058683,59.5548257 55.6552188,59.5548257 C55.3547857,59.5548257 55.129461,59.7806973 55.129461,60.0818595 C55.129461,60.3830217 55.3547857,60.5336028 55.730327,60.6841839 L55.8805435,60.7594745 C56.4063013,60.9853461 56.8569509,61.2865083 56.8569509,61.9641233 C56.8569509,62.6417383 56.2560848,63.1687721 55.429894,63.1687721 C55.2045692,63.1687721 54.9792444,63.0934816 54.8290279,63.0934816 C54.6788114,63.018191 54.5285949,63.018191 54.4534866,62.9429005 C54.3783784,62.6417383 54.3032701,62.340576 54.2281619,61.9641233 L54.3783784,61.8888327 Z" id="Path"></path><path d="M46.9426609,68.9661445 C46.9426609,69.5684689 47.0177692,69.6437595 47.3933104,69.6437595 L47.3933104,69.8696311 L45.515604,69.8696311 L45.515604,69.6437595 C45.8911453,69.6437595 45.9662535,69.5684689 45.9662535,68.9661445 L45.9662535,67.0838807 C45.9662535,66.4815563 45.8911453,66.4062658 45.515604,66.4062658 L45.515604,66.1803941 L47.3933104,66.1803941 L47.3933104,66.4062658 C47.0177692,66.4062658 46.9426609,66.4815563 46.9426609,67.0838807 L46.9426609,68.9661445 Z" id="Path"></path><path d="M49.1959086,69.0414351 C49.1959086,69.3425973 49.1959086,69.4931784 49.3461251,69.5684689 C49.4212334,69.6437595 49.5714499,69.6437595 49.7216664,69.6437595 C49.8718829,69.6437595 50.172316,69.6437595 50.2474242,69.4931784 C50.3225325,69.4178878 50.472749,69.2673067 50.5478572,68.890854 L50.773182,68.9661445 C50.773182,69.1920162 50.6229655,69.7943406 50.5478572,69.9449217 L47.6937435,69.9449217 L47.6937435,69.71905 C48.144393,69.71905 48.144393,69.6437595 48.144393,69.0414351 L48.144393,67.1591713 C48.144393,66.5568469 48.0692848,66.4815563 47.6937435,66.4815563 L47.6937435,66.1803941 L49.5714499,66.1803941 L49.5714499,66.4062658 C49.1959086,66.4062658 49.1208004,66.4815563 49.1208004,67.0838807 L49.1208004,69.0414351 L49.1959086,69.0414351 Z" id="Path"></path><path d="M52.4255637,69.0414351 C52.4255637,69.3425973 52.4255637,69.4931784 52.5757802,69.5684689 C52.6508885,69.6437595 52.801105,69.6437595 52.9513215,69.6437595 C53.101538,69.6437595 53.401971,69.6437595 53.4770793,69.4931784 C53.5521875,69.4178878 53.7024041,69.2673067 53.7775123,68.890854 L54.0028371,68.9661445 C54.0028371,69.1920162 53.8526206,69.7943406 53.7775123,69.9449217 L50.9985068,69.9449217 L50.9985068,69.71905 C51.4491563,69.71905 51.4491563,69.6437595 51.4491563,69.0414351 L51.4491563,67.1591713 C51.4491563,66.5568469 51.3740481,66.4815563 50.9985068,66.4815563 L50.9985068,66.1803941 L52.8762132,66.1803941 L52.8762132,66.4062658 C52.5006719,66.4062658 52.4255637,66.4815563 52.4255637,67.0838807 L52.4255637,69.0414351 Z" id="Path"></path><path d="M55.129461,69.9449217 C54.7539197,68.890854 54.2281619,67.5356241 54.0028371,66.9332996 C53.7775123,66.4815563 53.7024041,66.4062658 53.401971,66.4062658 L53.401971,66.1803941 L55.2796775,66.1803941 L55.2796775,66.4062658 L55.0543527,66.4062658 C54.8290279,66.4062658 54.8290279,66.4815563 54.9041362,66.707428 C54.9792444,67.0085902 55.429894,68.1379485 55.6552188,68.7402729 C55.8054353,68.2885296 56.1809766,67.1591713 56.2560848,66.8580091 C56.4063013,66.4815563 56.3311931,66.4815563 56.1058683,66.4062658 L55.9556518,66.4062658 L55.9556518,66.1803941 L57.3076004,66.1803941 L57.3076004,66.4062658 C57.0071674,66.4815563 56.9320591,66.4815563 56.7067344,67.0085902 C56.7067344,67.0838807 55.9556518,68.8155634 55.5801105,69.9449217 L55.129461,69.9449217 Z" id="Path"></path><path d="M69.8506794,52.4775139 L69.8506794,52.7033855 C69.4000299,52.7786761 69.4000299,52.7786761 69.4000299,53.3810005 L69.4751381,55.2632643 C69.4751381,55.8655887 69.4751381,55.9408792 69.9257877,55.9408792 L69.9257877,56.1667509 L68.1231895,56.1667509 L68.1231895,55.9408792 C68.573839,55.8655887 68.573839,55.8655887 68.573839,55.2632643 L68.573839,53.2304194 L68.573839,53.2304194 L67.4472152,56.0914603 L67.1467821,56.0914603 L66.0952665,53.4562911 L66.0952665,53.4562911 L66.0201583,54.7362304 C66.0201583,55.2632643 66.0201583,55.4891359 66.0201583,55.7150076 C66.0201583,55.9408792 66.1703748,56.0161698 66.5459161,56.0161698 L66.5459161,56.2420414 L65.1188592,56.2420414 L65.1188592,56.0161698 C65.4192922,56.0161698 65.4944005,55.9408792 65.5695087,55.7150076 C65.5695087,55.5644265 65.644617,55.2632643 65.644617,54.7362304 L65.7197253,53.6068722 C65.7948335,52.8539666 65.7197253,52.8539666 65.2690757,52.7786761 L65.2690757,52.5528044 L66.6210243,52.5528044 L67.5974317,54.811521 L68.4987308,52.5528044 L69.8506794,52.5528044 L69.8506794,52.4775139 Z" id="Path"></path><path d="M71.7283858,55.2632643 C71.7283858,55.8655887 71.8034941,55.9408792 72.1790354,55.9408792 L72.1790354,56.1667509 L70.301329,56.1667509 L70.301329,55.9408792 C70.6768702,55.9408792 70.7519785,55.8655887 70.7519785,55.2632643 L70.7519785,53.3810005 C70.7519785,52.7786761 70.6768702,52.7033855 70.301329,52.7033855 L70.301329,52.4775139 L72.1790354,52.4775139 L72.1790354,52.7033855 C71.8034941,52.7033855 71.7283858,52.7786761 71.7283858,53.3810005 L71.7283858,55.2632643 Z" id="Path"></path><path d="M75.9344483,56.2420414 L75.4086905,56.2420414 L73.3056593,53.5315816 L73.3056593,53.5315816 L73.3056593,54.5856493 C73.3056593,55.1879737 73.3056593,55.4891359 73.3807675,55.7150076 C73.3807675,55.9408792 73.530984,56.0161698 73.9065253,56.0161698 L73.9065253,56.2420414 L72.4794684,56.2420414 L72.4794684,56.0161698 C72.7047932,56.0161698 72.8550097,55.9408792 72.930118,55.7150076 C72.930118,55.5644265 73.0052262,55.2632643 73.0052262,54.5856493 L73.0052262,53.5315816 C73.0052262,53.0798383 73.0052262,53.0045478 72.8550097,52.8539666 C72.7799014,52.7033855 72.6296849,52.7033855 72.4043602,52.7033855 L72.4043602,52.4775139 L73.6812005,52.4775139 L75.558907,54.8868115 L75.558907,54.8868115 L75.558907,54.133906 C75.558907,53.5315816 75.558907,53.2304194 75.4837987,53.0045478 C75.4837987,52.7786761 75.3335822,52.7033855 74.8829327,52.7033855 L74.8829327,52.4775139 L76.3099895,52.4775139 L76.3099895,52.7033855 C76.0095565,52.7033855 75.85934,52.7786761 75.85934,53.0045478 C75.85934,53.1551289 75.7842317,53.5315816 75.7842317,54.133906 L75.7842317,56.2420414 L75.9344483,56.2420414 Z" id="Path"></path><path d="M78.3379125,55.9408792 L78.488129,55.9408792 C78.7134538,55.9408792 78.7134538,55.8655887 78.6383455,55.639717 L78.4130208,55.0373926 L77.4366134,55.0373926 L77.2863969,55.5644265 C77.2112886,55.7902981 77.2112886,55.8655887 77.4366134,55.8655887 L77.5868299,55.8655887 L77.5868299,56.0914603 L76.2348813,56.0914603 L76.2348813,55.8655887 C76.5353143,55.7902981 76.6104226,55.7902981 76.8357473,55.3385548 L77.9623712,52.4022233 L78.3379125,52.3269328 L78.7134538,53.3810005 C78.9387786,54.0586155 79.2392116,54.7362304 79.3894281,55.3385548 C79.5396446,55.8655887 79.6898611,55.8655887 79.9902942,55.9408792 L79.9902942,56.1667509 L78.187696,56.1667509 L78.187696,55.9408792 L78.3379125,55.9408792 Z M77.5868299,54.7362304 L78.3379125,54.7362304 L77.9623712,53.6068722 L77.9623712,53.6068722 L77.5868299,54.7362304 Z" id="Shape"></path><path d="M69.7755712,62.1147044 C69.7755712,62.7170288 69.8506794,62.7923194 70.301329,62.7923194 L70.301329,63.018191 L68.273406,63.018191 L68.273406,62.7923194 C68.7240555,62.7923194 68.7991638,62.7170288 68.7991638,62.1147044 L68.7991638,59.6301162 L68.7240555,59.6301162 C68.3485143,59.6301162 68.1982977,59.7054068 68.1231895,59.7806973 C68.0480812,59.8559879 67.972973,60.006569 67.8978647,60.3077312 L67.6725399,60.3077312 C67.6725399,59.8559879 67.7476482,59.4042446 67.7476482,59.1030824 L67.8978647,59.1030824 C67.972973,59.2536635 68.0480812,59.2536635 68.1982977,59.2536635 L70.4515455,59.2536635 C70.601762,59.2536635 70.601762,59.2536635 70.7519785,59.1030824 L70.902195,59.1030824 C70.902195,59.328954 70.902195,59.8559879 70.9773033,60.2324406 L70.7519785,60.2324406 C70.6768702,59.8559879 70.601762,59.7054068 70.5266537,59.6301162 C70.4515455,59.5548257 70.2262207,59.4795351 70.0008959,59.4795351 L69.7755712,59.4795351 L69.7755712,62.1147044 Z" id="Path"></path><path d="M72.7799014,62.1147044 C72.7799014,62.7170288 72.8550097,62.7923194 73.230551,62.7923194 L73.230551,63.018191 L71.3528446,63.018191 L71.3528446,62.7923194 C71.7283858,62.7923194 71.8034941,62.7170288 71.8034941,62.1147044 L71.8034941,60.2324406 C71.8034941,59.6301162 71.7283858,59.5548257 71.3528446,59.5548257 L71.3528446,59.328954 L73.230551,59.328954 L73.230551,59.5548257 C72.8550097,59.5548257 72.7799014,59.6301162 72.7799014,60.2324406 L72.7799014,62.1147044 Z" id="Path"></path><path d="M77.5868299,61.1359272 C77.5868299,62.340576 76.7606391,63.0934816 75.6340152,63.0934816 C74.5073914,63.0934816 73.7563088,62.2652855 73.7563088,61.2112178 C73.7563088,60.3077312 74.3571749,59.1783729 75.7091235,59.1783729 C76.7606391,59.2536635 77.5868299,60.006569 77.5868299,61.1359272 Z M74.8078244,61.0606367 C74.8078244,62.1147044 75.1833657,62.8676099 75.7842317,62.8676099 C76.3099895,62.8676099 76.5353143,62.4158666 76.5353143,61.3617989 C76.5353143,60.2324406 76.0846648,59.5548257 75.6340152,59.5548257 C75.1082574,59.5548257 74.8078244,60.006569 74.8078244,61.0606367 Z" id="Shape"></path><path d="M71.5030611,66.1803941 L71.5030611,66.4062658 C71.0524115,66.4815563 71.0524115,66.4815563 71.0524115,67.0838807 L71.1275198,68.9661445 C71.1275198,69.5684689 71.1275198,69.6437595 71.5781693,69.6437595 L71.5781693,69.8696311 L69.7755712,69.8696311 L69.7755712,69.6437595 C70.2262207,69.5684689 70.2262207,69.5684689 70.2262207,68.9661445 L70.2262207,66.9332996 L70.2262207,66.9332996 L69.0995968,69.7943406 L68.7991638,69.7943406 L67.7476482,67.1591713 L67.7476482,67.1591713 L67.6725399,68.4391107 C67.6725399,68.9661445 67.6725399,69.1920162 67.6725399,69.4178878 C67.6725399,69.6437595 67.8227565,69.71905 68.1982977,69.71905 L68.1982977,69.9449217 L66.7712409,69.9449217 L66.7712409,69.71905 C67.0716739,69.71905 67.1467821,69.6437595 67.2218904,69.4178878 C67.2218904,69.2673067 67.2969987,68.9661445 67.2969987,68.4391107 L67.3721069,67.3097524 C67.4472152,66.5568469 67.3721069,66.5568469 66.9214574,66.4815563 L66.9214574,66.1803941 L68.273406,66.1803941 L69.2498133,68.4391107 L70.1511124,66.1803941 L71.5030611,66.1803941 Z" id="Path"></path><path d="M72.4043602,67.0838807 C72.4043602,66.4815563 72.3292519,66.4062658 71.9537106,66.4062658 L71.9537106,66.1803941 L74.6576079,66.1803941 C74.6576079,66.2556847 74.6576079,66.707428 74.7327161,67.1591713 L74.5073914,67.1591713 C74.4322831,66.8580091 74.3571749,66.707428 74.2820666,66.6321374 C74.2069583,66.5568469 73.9816336,66.4815563 73.6812005,66.4815563 L73.6060923,66.4815563 C73.3807675,66.4815563 73.3807675,66.4815563 73.3807675,66.707428 L73.3807675,67.8367863 L73.6812005,67.8367863 C74.2069583,67.8367863 74.2069583,67.8367863 74.2820666,67.385043 L74.5073914,67.385043 L74.5073914,68.7402729 L74.2820666,68.7402729 C74.2069583,68.213239 74.2069583,68.213239 73.6812005,68.213239 L73.3807675,68.213239 L73.3807675,69.1167256 C73.3807675,69.4178878 73.3807675,69.5684689 73.530984,69.6437595 C73.6060923,69.71905 73.7563088,69.71905 73.9065253,69.71905 C74.1318501,69.71905 74.3571749,69.71905 74.5073914,69.5684689 C74.5824996,69.4931784 74.7327161,69.2673067 74.8078244,68.9661445 L75.0331492,69.0414351 C75.0331492,69.3425973 74.8829327,69.9449217 74.8078244,70.0955028 L71.8786024,70.0955028 L71.8786024,69.8696311 C72.3292519,69.7943406 72.3292519,69.7943406 72.3292519,69.1920162 L72.3292519,67.0838807 L72.4043602,67.0838807 Z" id="Path"></path><path d="M76.9859639,69.71905 L77.1361804,69.71905 C77.3615052,69.71905 77.3615052,69.6437595 77.2863969,69.4178878 L77.0610721,68.8155634 L76.159773,68.8155634 L76.0095565,69.3425973 C75.9344483,69.5684689 75.9344483,69.6437595 76.159773,69.6437595 L76.3099895,69.6437595 L76.3099895,69.8696311 L75.0331492,69.8696311 L75.0331492,69.6437595 C75.3335822,69.5684689 75.4086905,69.5684689 75.6340152,69.1167256 L76.7606391,66.1803941 L77.1361804,66.1051036 L77.5117217,67.1591713 C77.7370464,67.8367863 78.0374795,68.5144012 78.187696,69.1167256 C78.3379125,69.6437595 78.488129,69.6437595 78.788562,69.6437595 L78.788562,69.8696311 L76.9859639,69.8696311 L76.9859639,69.71905 L76.9859639,69.71905 Z M76.3099895,68.4391107 L77.0610721,68.4391107 L76.6855308,67.3097524 L76.6855308,67.3097524 L76.3099895,68.4391107 Z" id="Shape"></path><path d="M57.0071674,115.947448 C57.0071674,116.775644 56.3311931,117.453259 55.5050022,117.453259 C54.6788114,117.453259 54.0028371,116.775644 54.0028371,115.947448 C54.0028371,115.119252 54.6788114,114.441637 55.5050022,114.441637 C56.3311931,114.441637 57.0071674,115.119252 57.0071674,115.947448 Z" id="Path"></path><path d="M72.1790354,118.432036 C72.1790354,119.260232 71.5030611,119.937847 70.6768702,119.937847 C69.8506794,119.937847 69.1747051,119.260232 69.1747051,118.432036 C69.1747051,117.60384 69.8506794,116.926225 70.6768702,116.926225 C71.5030611,116.926225 72.1790354,117.60384 72.1790354,118.432036 Z" id="Path"></path><path d="M63.616694,10.2395149 C63.616694,11.067711 62.9407197,11.7453259 62.1145289,11.7453259 C61.2883381,11.7453259 60.6123637,11.067711 60.6123637,10.2395149 C60.6123637,9.41131885 61.2883381,8.73370389 62.1145289,8.73370389 C62.9407197,8.73370389 63.616694,9.41131885 63.616694,10.2395149 Z" id="Path"></path><path d="M99.1428998,24.2435574 C99.1428998,25.0717534 98.3918172,25.6740778 97.5656264,25.6740778 C96.7394356,25.6740778 96.0634613,24.9211723 96.1385695,24.0929763 C96.1385695,23.2647802 96.8896521,22.6624558 97.7158429,22.6624558 C98.5420337,22.7377463 99.1428998,23.4153613 99.1428998,24.2435574 Z" id="Path"></path><path d="M24.2599671,88.5416877 C24.8608332,89.3698838 25.1612662,90.2733704 25.086158,91.176857 C25.086158,92.2309247 24.7106167,93.0591208 22.8329103,94.3390601 L17.4251157,98.1788782 L16.4487084,96.7483578 C16.4487084,96.7483578 22.0067194,92.8332491 22.0818277,92.7579586 C23.058235,92.0803436 23.4337763,91.6286003 23.4337763,90.8756948 C23.4337763,90.4239515 23.2835598,89.8969176 22.9080185,89.3698838 C22.3822607,88.6169783 21.7062864,88.3158161 21.0303121,88.3158161 C20.5045543,88.3158161 19.9036882,88.6922688 18.8521726,89.4451743 L13.8199194,92.9085397 L12.843512,91.4780192 L17.6504405,88.165235 C19.0023891,87.1864578 20.0539047,86.5841334 21.0303121,86.5841334 C22.5324772,86.659424 23.5839928,87.5629106 24.2599671,88.5416877 Z" id="Path"></path><polygon id="Path" points="6.98506794 78.0010106 17.2748992 74.3870642 17.800657 75.9681657 11.9422129 83.1207681 19.3779304 80.1844366 19.9036882 81.6902476 9.76407347 85.6053562 9.23831566 84.0242547 15.0967597 76.8716523 7.51082574 79.5068216"></polygon><polygon id="Rectangle" transform="translate(11.0069, 69.8347) rotate(-8.4469) translate(-11.0069, -69.8347)" points="5.56134734 68.9707375 16.4531391 68.9668967 16.4525299 70.6985723 5.5607381 70.7024131"></polygon><polygon id="Path" points="5.10736151 56.8443658 5.18246976 55.0373926 15.9229506 59.4042446 15.8478423 61.1359272 4.80692848 64.4487115 4.80692848 62.6417383 13.7448111 60.1571501"></polygon><path d="M14.9465432,32.4502274 C13.4443781,32.4502274 12.6932955,33.353714 11.7168882,35.0853967 L10.4400478,37.3441132 L19.9787965,42.5391612 L20.8049873,41.0333502 L16.8242497,38.8499242 L17.0495744,38.3981809 C17.7255488,37.1935321 17.9508735,36.9676604 19.6783634,37.1182415 L22.757802,37.4194037 L23.6591011,35.8383022 L20.0539047,35.53714 C19.3028222,35.4618494 18.7770644,35.3865589 18.3264148,35.53714 C18.1761983,35.6124305 18.0259818,35.6877211 17.800657,35.8383022 C17.8757653,35.6124305 17.9508735,35.4618494 17.9508735,35.2359778 C17.9508735,34.9348156 17.8757653,34.6336534 17.800657,34.3324912 C17.5753322,33.7301668 17.1246827,33.2031329 16.4487084,32.8266801 C15.9980588,32.6008085 15.472301,32.4502274 14.9465432,32.4502274 Z M12.9937285,35.7630116 C13.5945946,34.6336534 14.1203524,34.1819101 14.7212185,34.1819101 C14.9465432,34.1819101 15.3220845,34.2572006 15.6225175,34.4077817 C15.9980588,34.6336534 16.3736001,35.0101061 16.4487084,35.3865589 C16.5238166,35.53714 16.5238166,35.6877211 16.5238166,35.8383022 C16.5238166,36.5159171 16.1482753,37.1182415 15.7727341,37.7958565 L15.5474093,38.1723092 L12.4679707,36.5159171 L12.9937285,35.7630116 Z" id="Shape"></path><polygon id="Rectangle" transform="translate(30.8413, 20.8789) rotate(-37.2423) translate(-30.8413, -20.8789)" points="29.9831158 15.426072 31.7121779 15.424052 31.6994429 26.3317313 29.9703809 26.3337514"></polygon><polygon id="Path" points="32.8223085 12.7993936 39.8073764 9.1854472 40.4833508 10.4653866 37.7794535 11.895907 42.0606242 20.2531582 40.558459 21.0813542 36.2021801 12.7241031 33.4982828 14.1546235"></polygon><polygon id="Path" points="50.3225325 5.87266296 52.1251307 5.34562911 50.6980738 12.6488125 51.8246976 16.7897928 50.172316 17.2415361 49.0456921 13.1758464 43.8632223 7.75492673 45.6658205 7.22789288 49.3461251 11.067711"></polygon><polygon id="Path" points="83.445274 20.7049015 88.9281768 11.3688732 94.1106466 14.4557858 93.359564 15.7357251 89.6792594 13.5522991 88.1770942 16.1121779 91.6320741 18.1450227 90.8809915 19.4249621 87.4260116 17.3921172 84.9474392 21.6083881"></polygon><polygon id="Path" points="111.310438 45.0237494 115.291175 40.2804447 115.892041 42.0874179 112.962819 45.4754927 117.319098 46.4542698 117.919964 48.2612431 111.911304 46.8307226 107.705241 51.8751895 107.104375 50.0682163 110.258922 46.3036887 105.527102 45.249621 104.926236 43.4426478"></polygon><polygon id="Path" points="108.230999 55.7150076 119.046588 54.811521 119.572346 60.834765 118.070181 60.9100556 117.694639 56.6184942 114.690309 56.9196564 115.06585 60.9100556 113.638793 61.0606367 113.263252 56.9949469 108.381215 57.3713997"></polygon><path d="M113.037927,65.3521981 C111.761087,65.3521981 110.634463,65.7286508 109.733164,66.3309752 C108.080782,67.5356241 107.780349,69.2673067 107.780349,70.2460839 C107.780349,73.9353209 111.235329,75.3658413 113.78901,75.3658413 C115.06585,75.3658413 116.192474,74.9893886 117.093773,74.3870642 C118.896372,73.0318343 119.046588,71.0742799 119.046588,70.396665 C119.046588,67.3097524 116.042258,65.3521981 113.037927,65.3521981 Z M113.864118,73.7094492 C111.761087,73.7094492 109.282515,72.580091 109.282515,70.396665 C109.282515,69.6437595 109.582948,68.5896918 110.484247,67.9120768 C111.160221,67.4603335 111.986412,67.1591713 112.887711,67.1591713 C113.939227,67.1591713 115.892041,67.4603335 116.943557,68.890854 C117.319098,69.3425973 117.469315,69.9449217 117.469315,70.5472461 C117.469315,71.3754421 117.093773,72.3542193 116.267582,73.0318343 C115.666716,73.4835776 114.840526,73.7094492 113.864118,73.7094492 Z" id="Shape"></path><path d="M106.728834,29.1374432 C105.60221,29.1374432 104.475586,29.5138959 103.348962,30.1915109 C101.245931,31.5467408 100.494848,33.4290045 100.494848,34.7842345 C100.494848,35.6877211 100.720173,36.5912077 101.245931,37.3441132 C102.372555,39.1510864 104.175153,39.6028297 105.301777,39.6028297 C106.428401,39.6028297 107.630133,39.226377 108.756757,38.548762 C110.108705,37.7205659 111.610871,36.1394644 111.610871,33.9560384 C111.610871,33.0525518 111.385546,32.1490652 110.859788,31.3961597 C109.808272,29.9656392 108.381215,29.1374432 106.728834,29.1374432 Z M105.001344,38.0217281 C104.024937,38.0217281 103.123637,37.6452754 102.522771,36.6664982 C102.222338,36.2147549 102.072122,35.6124305 102.072122,35.0853967 C102.072122,33.8807479 102.823204,32.6008085 104.250261,31.6973219 C105.226669,31.0949975 106.127968,30.7938353 106.954159,30.7938353 C108.005674,30.7938353 108.831865,31.2455786 109.432731,32.1490652 C109.733164,32.676099 109.958489,33.2784234 109.958489,33.8054573 C109.958489,35.0101061 109.207406,36.2147549 107.855458,37.042951 C106.87905,37.7205659 105.902643,38.0217281 105.001344,38.0217281 Z" id="Shape"></path><path d="M77.0610721,6.70085902 C74.8078244,6.70085902 72.8550097,8.20667004 72.0288189,10.9171299 C71.8786024,11.5194543 71.7283858,12.1217787 71.7283858,12.7241031 C71.7283858,13.7781708 71.8786024,14.6816574 72.3292519,15.5098535 C73.3056593,17.3168267 75.1833657,17.9944416 76.5353143,17.9944416 C77.3615052,17.9944416 78.1125877,17.8438605 78.788562,17.4674078 C80.5911602,16.4886306 81.8680006,14.1546235 81.8680006,11.895907 C81.8680006,10.9171299 81.6426758,10.0136433 81.2671345,9.26073775 C80.4409437,7.60434563 78.788562,6.70085902 77.0610721,6.70085902 Z M76.5353143,16.4133401 C75.7842317,16.4133401 74.5824996,16.0368873 73.9816336,14.8322385 C73.6812005,14.3052046 73.530984,13.5522991 73.530984,12.8746842 C73.530984,10.9171299 74.8078244,8.20667004 77.2112886,8.20667004 C78.5632373,8.20667004 80.2156189,9.1854472 80.2156189,11.6700354 C80.2156189,13.2511369 79.0889951,16.4133401 76.5353143,16.4133401 Z" id="Shape"></path><polygon id="Path" points="16.9744662 46.2283982 18.4015231 46.6048509 16.7491414 52.628095 6.23398537 49.6917635 8.03658354 43.6685195 9.46364044 44.0449722 8.18680006 48.4118242 11.0409138 49.2400202 12.1675377 45.249621 13.5945946 45.6260738 12.4679707 49.616473 15.7727341 50.5199596"></polygon><path d="M19.6783634,23.4906518 C21.1805286,21.7589692 22.757802,21.9095503 22.757802,21.9095503 L23.058235,23.3400707 C23.058235,23.3400707 21.8565029,23.3400707 20.9552038,24.3941385 C20.5796625,24.8458818 20.3543378,25.2976251 20.3543378,25.7493684 C20.3543378,26.1258211 20.5045543,26.4269833 20.8049873,26.652855 C21.5560699,27.3304699 22.8329103,26.5775644 23.6591011,26.2764022 C24.2599671,26.0505306 25.1612662,25.6740778 26.0625653,25.6740778 C26.7385396,25.6740778 27.414514,25.8246589 28.01538,26.4269833 C28.7664626,27.1045983 29.0668956,27.8575038 29.0668956,28.7609904 C29.0668956,29.664477 28.6913543,30.4926731 28.01538,31.3208691 C26.6634314,32.9019707 24.785725,33.0525518 24.785725,33.0525518 L24.4101837,31.6220313 C25.5368075,31.3961597 26.3629984,30.9444164 26.8136479,30.342092 C27.1891892,29.8903487 27.414514,29.3633148 27.414514,28.9868621 C27.414514,28.6104093 27.2642974,28.158666 26.8887562,27.8575038 C26.5883231,27.6316321 26.2878901,27.5563416 25.9123488,27.5563416 C25.2363745,27.5563416 24.4101837,27.9327943 23.6591011,28.2339565 C22.3071525,28.7609904 20.9552038,29.2127337 19.6783634,28.0833754 C19.0774974,27.481051 18.7019561,26.8034361 18.7019561,25.97524 C18.7019561,25.147044 19.0023891,24.2435574 19.6783634,23.4906518 Z" id="Path"></path><path d="M105.376885,79.4315311 L109.507839,81.3137948 L109.282515,81.7655382 C108.756757,83.0454775 108.531432,83.2713492 106.803942,83.2713492 L103.724504,83.2713492 L102.973421,84.9277413 L106.578617,84.9277413 C107.3297,84.9277413 107.855458,84.9277413 108.306107,84.7771602 C108.456324,84.7018696 108.60654,84.6265791 108.756757,84.475998 C108.756757,84.5512885 108.681648,84.6265791 108.681648,84.7771602 C108.681648,85.1536129 108.756757,85.6053562 108.906973,85.9065184 C109.432731,87.0358767 110.709571,87.6382011 111.685979,87.6382011 C113.413469,87.6382011 114.089443,86.5841334 114.915634,84.7018696 C114.915634,84.6265791 115.892041,82.3678626 115.892041,82.3678626 L106.052859,77.9257201 L105.376885,79.4315311 Z M111.761087,85.9065184 C111.235329,85.9065184 110.409138,85.6053562 110.108705,84.7771602 C110.033597,84.5512885 110.033597,84.3254169 110.033597,84.1748358 C110.033597,83.5725114 110.33403,82.970187 110.634463,82.292572 L110.78468,81.8408287 L113.939227,83.2713492 L113.563685,84.0995452 C112.962819,85.5300657 112.587278,85.9065184 111.761087,85.9065184 Z" id="Shape"></path><path d="M99.6686576,89.7463365 C98.5420337,91.176857 97.7158429,92.4567964 97.7158429,94.0378979 C97.7158429,95.3931278 98.316709,96.9742294 99.8939824,98.2541688 C100.945498,99.0823648 102.14723,99.5341081 103.348962,99.5341081 C104.851127,99.5341081 106.052859,99.0823648 107.930566,96.7483578 L109.658056,94.5649318 L101.170823,87.7887822 L99.6686576,89.7463365 Z M103.499179,97.9530066 C102.672988,97.9530066 101.846797,97.6518444 100.945498,96.9742294 C100.119307,96.2966145 99.2180081,95.2425467 99.2180081,93.8873168 C99.2180081,92.9085397 99.7437659,92.0050531 100.494848,91.0262759 L101.245931,90.1227893 L107.479916,95.0919656 L107.029267,95.69429 C105.827535,97.1248105 105.001344,97.9530066 103.499179,97.9530066 Z" id="Shape"></path><path d="M124.379274,62.2652855 C124.379274,27.9327943 96.4390025,0 62.1896372,0 C27.8651635,0 0,27.9327943 0,62.2652855 C0,82.8948964 10.1396148,102.018696 27.1140809,113.688732 C28.7664626,119.937847 34.4746902,124.530571 41.2344333,124.530571 C43.0370315,124.530571 44.8396297,124.154118 46.4920113,123.551794 C48.7452591,124.304699 51.1487233,124.907024 53.4770793,125.434058 C52.801105,127.316321 51.8246976,129.123295 50.9233985,130.704396 C50.9233985,130.704396 50.9233985,130.704396 50.9985068,130.704396 C50.9985068,130.704396 50.9233985,130.704396 50.9233985,130.704396 L52.2002389,131.984336 C52.5006719,131.833754 52.8762132,131.683173 53.3268628,131.683173 C54.6037032,131.683173 55.6552188,132.737241 55.6552188,134.01718 C55.6552188,135.29712 54.6037032,136.351187 53.3268628,136.351187 C52.2002389,136.351187 51.2238316,135.598282 50.6980738,134.845376 C50.6980738,134.845376 50.3976407,135.899444 50.3976407,137.254674 C50.3976407,141.696817 55.2796775,146.816574 62.0394206,149 C68.7991638,146.891865 73.6812005,141.772107 73.6812005,137.254674 C73.6812005,135.748863 73.3807675,134.845376 73.3807675,134.845376 C72.8550097,135.447701 72.0288189,136.351187 70.7519785,136.351187 C69.4751381,136.351187 68.4236225,135.29712 68.4236225,134.01718 C68.4236225,132.737241 69.4751381,131.683173 70.7519785,131.683173 C71.202628,131.683173 71.5781693,131.833754 71.9537106,132.059626 L73.230551,130.779687 C73.230551,130.779687 73.3056593,130.779687 73.3056593,130.779687 C72.6296849,129.048004 72.1039271,127.542193 71.7283858,126.036382 C82.9195162,124.530571 92.3831566,119.787266 99.8188741,111.881758 L99.8188741,111.881758 C115.441392,99.9105609 124.379274,81.8408287 124.379274,62.2652855 Z M41.2344333,122.798888 C34.1742571,122.798888 28.3909213,117.001516 28.3909213,109.924204 C28.3909213,107.665488 28.9917874,105.632643 29.9681947,103.750379 C30.644169,104.352703 31.3201433,104.955028 32.0712259,105.632643 C31.4703599,106.987873 31.0948186,108.418393 31.0948186,109.999495 C31.0948186,113.839313 33.0476333,117.076806 36.7279379,119.260232 C38.8309691,120.540172 41.2344333,121.66953 43.7881141,122.648307 C42.9619232,122.723598 42.1357324,122.798888 41.2344333,122.798888 Z M62.1896372,104.051541 C59.5608481,104.051541 56.9320591,103.82567 54.3032701,103.298636 C51.8246976,98.4047499 46.7173361,95.2425467 41.2344333,95.2425467 C39.8824847,95.2425467 38.6056443,95.4684184 37.3288039,95.7695806 C26.7385396,87.9393633 20.429446,75.3658413 20.429446,62.1899949 C20.429446,39.1510864 39.1314021,20.4037393 62.1145289,20.4037393 C85.0976557,20.4037393 103.799837,39.1510864 103.799837,62.1899949 C103.87472,85.304194 85.1727639,104.051541 62.1896372,104.051541 Z M71.4279528,104.804447 C70.1511124,106.61142 69.4000299,109.096008 69.2498133,111.580596 C65.2690757,110.526529 61.7389876,109.171299 58.5844408,107.740778 C59.1853069,106.61142 60.9127968,105.783224 62.1896372,105.783224 C65.344184,105.783224 68.4236225,105.406771 71.4279528,104.804447 Z M58.2088995,105.632643 C57.6831417,106.009096 57.2324922,106.536129 56.9320591,106.987873 C55.3547857,106.234967 53.401971,105.25619 52.0500224,104.503284 C53.9277288,104.955028 56.3311931,105.406771 58.2088995,105.632643 Z M41.2344333,97.04952 C45.515604,97.04952 49.5714499,99.2329459 51.8998059,102.771602 C49.8718829,102.244568 47.84396,101.566953 45.816037,100.738757 L45.816037,100.738757 L45.7409288,100.738757 C44.3889801,100.061142 42.886815,99.7599798 41.3095416,99.7599798 C37.8545617,99.7599798 34.8502314,101.416372 32.972525,103.976251 C32.2214424,103.524507 31.3952516,103.072764 30.644169,102.621021 C33.0476333,99.2329459 36.8781544,97.04952 41.2344333,97.04952 Z M70.7519785,129.8762 C68.4236225,129.8762 66.5459161,131.532592 66.5459161,134.01718 C66.5459161,136.426478 68.4236225,138.158161 70.7519785,138.158161 C71.1275198,138.158161 71.4279528,138.08287 71.7283858,138.00758 C71.2777363,141.470945 67.2218904,145.310763 62.0394206,147.042446 C56.9320591,145.310763 52.8762132,141.395654 52.3504554,138.00758 C52.6508885,138.08287 53.0264297,138.158161 53.3268628,138.158161 C55.8054353,138.158161 57.5329252,136.426478 57.5329252,134.01718 C57.5329252,131.758464 55.730327,129.951491 53.4770793,129.8762 C54.1530536,128.596261 54.8290279,127.241031 55.3547857,125.73522 C58.2088995,126.262254 60.987905,126.488125 63.616694,126.488125 C65.7948335,126.488125 67.8227565,126.337544 69.8506794,126.186963 C70.1511124,127.391612 70.5266537,128.596261 70.9773033,129.8762 C70.902195,129.8762 70.8270868,129.8762 70.7519785,129.8762 Z M63.616694,124.756443 C55.2796775,124.756443 44.8396297,121.895402 37.7043452,117.679131 C35.5262058,116.399192 32.972525,113.989894 32.972525,109.924204 C32.972525,108.794846 33.1978498,107.740778 33.5733911,106.837292 C36.2772883,109.020718 38.9811856,111.128853 40.7086755,112.10763 C41.0842168,112.333502 41.3095416,112.408792 41.8352994,112.408792 C42.9619232,112.408792 43.8632223,111.505306 43.8632223,110.375947 C43.8632223,109.547751 43.4125728,108.794846 42.6614902,108.493684 C41.1593251,107.816069 38.0798865,106.536129 34.7751232,104.804447 C36.3523966,102.771602 38.7558608,101.416372 41.4597581,101.416372 C42.7365985,101.416372 43.9383306,101.717534 45.0649545,102.244568 L47.3182022,103.599798 C54.6037032,108.04194 73.3056593,119.486104 95.8381365,113.161698 C87.2006869,120.916625 76.6855308,124.756443 63.616694,124.756443 Z M98.617142,110.451238 C88.4775273,114.065184 79.0889951,113.764022 71.0524115,111.957049 C71.3528446,108.343103 72.7799014,104.503284 75.1082574,103.750379 C92.8338062,98.2541688 105.752426,81.6902476 105.752426,62.1899949 C105.752426,38.1723092 86.2242795,18.6720566 62.2647454,18.6720566 C38.230103,18.6720566 18.7770644,38.1723092 18.7770644,62.1899949 C18.7770644,75.5164224 25.0110497,88.2405255 35.4510975,96.4471956 C32.972525,97.5765538 30.8694938,99.3082365 29.2922204,101.491662 C28.4660296,100.964629 27.714947,100.362304 27.0389727,99.8352703 L26.6634314,100.211723 C27.1140809,100.814047 27.8651635,101.566953 28.7664626,102.395149 C27.4896222,104.578575 26.7385396,107.138454 26.7385396,109.848914 C26.7385396,110.300657 26.7385396,110.67711 26.8136479,111.128853 C11.1911304,99.7599798 1.95281469,81.614957 1.95281469,62.2652855 C1.95281469,28.9115715 29.0668956,1.73168267 62.3398537,1.73168267 C95.6128117,1.73168267 122.726893,28.8362809 122.726893,62.2652855 C122.501568,81.3890854 113.78901,98.9317837 98.617142,110.451238 Z" id="Shape"></path><path d="M202.191429,97.8024255 C202.191429,114.441637 189.347917,126.563416 173.349858,126.563416 C157.051366,126.563416 144.508287,114.366347 144.508287,98.4047499 C144.508287,81.7655382 157.351799,69.6434149 173.349858,69.6434149 C189.64835,69.5684689 202.191429,81.8408287 202.191429,97.8024255 Z M193.028222,98.1035877 C193.028222,82.970187 185.667612,72.3542193 173.349858,72.3542193 C159.90548,72.3542193 153.671495,85.0783224 153.671495,98.1035877 C153.671495,113.236988 161.032104,123.777665 173.349858,123.777665 C186.794236,123.777665 193.028222,111.053562 193.028222,98.1035877 Z" id="Shape"></path><path d="M378.320293,97.8024255 C378.320293,114.441637 365.476781,126.563416 349.478722,126.563416 C333.18023,126.563416 320.637151,114.366347 320.637151,98.4047499 C320.637151,81.7655382 333.480663,69.6434149 349.478722,69.6434149 C365.852322,69.5684689 378.320293,81.8408287 378.320293,97.8024255 Z M369.157085,98.1035877 C369.157085,82.970187 361.796476,72.3542193 349.478722,72.3542193 C336.034344,72.3542193 329.800358,85.0783224 329.800358,98.1035877 C329.800358,113.236988 337.160968,123.777665 349.478722,123.777665 C362.9231,123.777665 369.157085,111.053562 369.157085,98.1035877 Z" id="Shape"></path><path d="M400.627445,98.3294593 L407.462297,98.3294593 C417.827236,98.3294593 420.155592,91.7791814 420.155592,85.4547751 C420.155592,80.7114704 417.977453,76.2693279 413.095416,74.1611925 C410.541735,73.1071248 408.063163,73.1071248 404.683291,73.1071248 L400.552337,73.1071248 L400.552337,98.3294593 L400.627445,98.3294593 Z M413.320741,107.213744 C410.091086,102.621021 408.889353,100.964629 404.908616,100.964629 L400.627445,100.964629 L400.627445,119.636685 C400.627445,121.142496 401.228311,121.895402 402.955801,122.196564 L409.189786,123.551794 L409.189786,125.584639 L384.629386,125.584639 L384.629386,123.551794 L390.262506,122.196564 C391.914887,121.744821 392.515753,121.142496 392.515753,119.636685 L392.515753,76.4951996 C392.515753,74.9893886 391.914887,74.3870642 390.262506,73.8600303 L384.629386,72.5048004 L384.629386,70.5472461 L408.58892,70.5472461 C413.621174,70.5472461 417.151262,70.9989894 420.005376,72.0530571 C425.938928,74.3870642 429.318799,80.0338555 429.318799,85.3794846 C429.318799,92.1556342 424.286546,97.8024255 415.874421,99.7599798 L415.874421,100.061142 C417.526803,100.814047 418.50321,101.868115 424.436763,109.698332 L431.947588,119.636685 C432.999104,121.142496 434.426161,122.045983 436.078543,122.422436 L441.561445,123.627084 L441.561445,125.659929 L428.4175,125.659929 C426.915335,125.659929 426.089144,125.208186 424.737196,123.325922 L413.320741,107.213744 Z" id="Shape"></path><path d="M305.690608,89.3698838 L307.943855,89.3698838 L307.943855,107.740778 L305.690608,107.740778 L304.338659,102.244568 C303.88801,100.287014 302.686277,99.4588176 300.808571,99.4588176 L287.514409,99.4588176 L287.514409,119.636685 C287.514409,121.142496 288.115275,121.895402 289.842765,122.196564 L296.076751,123.551794 L296.076751,125.584639 L271.516351,125.584639 L271.516351,123.551794 L277.14947,122.196564 C278.801852,121.744821 279.477826,121.142496 279.477826,119.636685 L279.477826,76.4951996 C279.477826,74.9893886 278.87696,74.3870642 277.14947,73.9353209 L271.516351,72.580091 L271.516351,70.5472461 L313.051217,70.5472461 L313.051217,84.3254169 L310.722861,84.3254169 L308.16918,76.0434563 C307.568314,73.9353209 306.667015,73.1071248 304.789309,73.1071248 L287.514409,73.1071248 L287.514409,96.8236483 L300.808571,96.8236483 C302.611169,96.8236483 303.737793,96.0707428 304.338659,94.0378979 L305.690608,89.3698838 Z" id="Path"></path><path d="M445.917724,125.584639 L445.917724,123.551794 L451.550844,122.196564 C453.203225,121.744821 453.8792,121.142496 453.8792,119.636685 L453.8792,76.4951996 C453.8792,74.9893886 453.278334,74.3870642 451.550844,73.9353209 L445.917724,72.580091 L445.917724,70.5472461 L471.754965,70.5472461 C478.740033,70.5472461 483.847394,71.4507327 487.90324,73.3329965 C498.26818,78.0763012 503,88.3158161 503,98.4047499 C503,108.192521 499.319695,117.377969 490.006271,122.271854 C485.725101,124.605862 479.791548,125.659929 471.98029,125.659929 L445.917724,125.659929 L445.917724,125.584639 Z M461.990891,73.1071248 L461.990891,120.540172 C461.990891,122.573017 462.441541,123.02476 464.469464,123.02476 L471.154099,123.02476 C477.538301,123.02476 482.270121,122.121273 485.649993,119.636685 C491.283112,115.495705 493.911901,108.04194 493.911901,98.555331 C493.911901,89.2193027 491.283112,80.0338555 483.697178,75.591713 C480.467523,73.7094492 476.336569,73.1071248 469.952367,73.1071248 L461.990891,73.1071248 Z" id="Shape"></path><path d="M223.747499,123.627084 L223.747499,125.659929 L204.369568,125.659929 L204.369568,123.627084 L209.251605,122.422436 C211.054203,121.970692 212.331044,121.368368 213.532776,119.937847 L230.357026,98.8564932 L213.532776,76.4951996 C212.48126,74.9893886 211.129312,74.2364831 209.401822,73.7094492 L204.820218,72.5048004 L204.820218,70.4719555 L228.929969,70.4719555 L228.929969,72.5048004 L223.747499,73.5588681 C221.944901,73.8600303 222.39555,74.6129358 223.296849,75.8928752 L235.689712,93.6614452 L235.990145,93.6614452 L248.68344,75.8928752 C249.584739,74.6882264 249.885172,74.2364831 248.232791,73.7847398 L243.350754,72.580091 L243.350754,70.5472461 L262.728684,70.5472461 L262.728684,72.580091 L257.846648,73.7847398 C256.04405,74.2364831 254.767209,74.8388075 253.565477,76.1940374 L237.717635,96.2213239 L255.292967,119.636685 C256.344483,121.142496 257.771539,121.895402 259.423921,122.422436 L264.005525,123.627084 L264.005525,125.659929 L239.895774,125.659929 L239.895774,123.627084 L245.078244,122.573017 C246.880842,122.271854 246.580409,121.66953 245.67911,120.389591 L232.234732,101.416372 L231.934299,101.416372 L218.339704,120.23901 C217.438405,121.443658 217.137972,121.895402 218.790354,122.347145 L223.747499,123.627084 Z" id="Path"></path><path d="M165.914141,44.5720061 C164.411976,46.0778171 162.08362,47.1318848 158.929073,47.1318848 C156.150067,47.1318848 153.596386,46.2283982 151.868897,44.4967155 C149.465432,42.0874179 149.615649,39.0757959 149.615649,35.8383022 L149.615649,20.5543204 L152.695087,20.5543204 L152.695087,37.042951 C152.695087,39.1510864 152.619979,41.1839313 154.272361,42.7650328 C155.398985,43.8943911 157.126475,44.4967155 159.079289,44.4967155 C161.032104,44.4967155 162.534269,43.8191006 163.510676,42.8403234 C165.313275,41.0333502 165.163058,39.0757959 165.163058,34.4077817 L165.163058,20.6296109 L168.242497,20.6296109 L168.242497,33.6548762 C168.242497,38.4734715 168.392713,42.0874179 165.914141,44.5720061 Z" id="Path"></path><polygon id="Path" points="193.553979 46.6048509 181.0109 25.2223345 181.086009 46.6048509 178.231895 46.6048509 178.231895 20.5543204 181.46155 20.5543204 194.004629 42.0874179 193.929521 20.5543204 196.783634 20.5543204 196.783634 46.6048509"></polygon><rect id="Rectangle" x="207.674332" y="20.5543204" width="3.15454681" height="26.1258211"></rect><polygon id="Path" points="230.281917 46.6048509 226.676721 46.6048509 217.66373 20.5543204 220.968493 20.5543204 228.554427 43.5932289 236.365686 20.5543204 239.370016 20.5543204"></polygon><polygon id="Path" points="246.505301 46.6048509 246.505301 20.5543204 260.625653 20.5543204 260.625653 23.1141991 249.584739 23.1141991 249.584739 31.7726124 259.949679 31.7726124 259.949679 34.3324912 249.584739 34.3324912 249.584739 43.9696817 260.926086 43.9696817 260.926086 46.6048509"></polygon><path d="M280.754666,24.469429 C279.252501,22.963618 277.299686,23.0389085 275.196655,23.0389085 L272.342541,23.0389085 L272.342541,32.8266801 L273.394057,32.8266801 C276.022846,32.8266801 278.87696,32.9772612 280.60445,31.170288 C281.430641,30.342092 281.956398,29.0621526 281.956398,27.7822132 C281.956398,26.2764022 281.355532,25.0717534 280.754666,24.469429 Z M283.60878,46.6048509 L280.60445,39.8287014 C278.726743,35.6877211 277.900552,35.2359778 274.14514,35.2359778 L272.342541,35.2359778 L272.342541,46.6048509 L269.263103,46.6048509 L269.263103,20.4790298 L274.896222,20.4790298 C278.351202,20.4790298 280.979991,20.4790298 283.007914,22.5118747 C284.284754,23.791814 285.035837,25.5234967 285.035837,27.7069227 C285.035837,29.5138959 284.510079,31.0197069 283.383455,32.2243557 C282.482156,33.2031329 280.904883,34.1066195 279.177393,34.2572006 C280.078692,34.3324912 280.829775,34.7842345 281.355532,35.3112683 C282.031507,35.9888833 282.557264,37.1182415 283.308347,38.7746337 L286.838435,46.6048509 L283.60878,46.6048509 Z" id="Shape"></path><rect id="Rectangle" x="317.257279" y="20.5543204" width="3.15454681" height="26.1258211"></rect><polygon id="Path" points="338.287591 23.1141991 338.287591 46.6048509 335.133045 46.6048509 335.133045 23.1141991 327.396894 23.1141991 327.396894 20.5543204 345.948634 20.5543204 345.948634 23.1141991"></polygon><polygon id="Path" points="360.970285 36.2900455 360.970285 46.6048509 357.890847 46.6048509 357.890847 36.2900455 349.628938 20.5543204 353.159026 20.5543204 359.618337 32.7513896 365.852322 20.5543204 369.232194 20.5543204"></polygon><path d="M398.449306,22.7377463 C393.341944,22.7377463 390.037181,27.0293077 390.037181,33.5795856 C390.037181,40.054573 393.717485,44.4967155 398.599522,44.4967155 C404.007317,44.4967155 407.086755,39.8287014 407.086755,33.353714 C407.086755,26.9540172 403.481559,22.7377463 398.449306,22.7377463 Z M398.449306,47.1318848 C391.689562,47.1318848 386.807526,41.560384 386.807526,33.7301668 C386.807526,25.6740778 391.689562,20.1025771 398.749739,20.1025771 C405.58459,20.1025771 410.391519,25.6740778 410.391519,33.5042951 C410.31641,41.560384 405.434374,47.1318848 398.449306,47.1318848 Z" id="Shape"></path><polygon id="Path" points="421.95819 23.1141991 421.95819 31.7726124 432.022697 31.7726124 432.022697 34.2572006 421.95819 34.2572006 421.95819 46.6048509 418.878752 46.6048509 418.878752 20.5543204 432.698671 20.5543204 432.698671 23.1141991"></polygon><path d="M293.147529,26.8787266 C293.147529,22.8883274 296.377184,20.0272865 301.033896,20.0272865 C305.765716,20.0272865 308.094072,22.5118747 308.319397,22.7377463 L306.817232,24.6200101 C306.216366,24.1682668 304.113334,22.6624558 301.259221,22.6624558 C297.954457,22.6624558 296.076751,24.3941385 296.076751,26.7281455 C296.076751,27.8575038 296.5274,28.6856998 297.278483,29.3633148 C298.179782,30.1915109 299.456622,30.7938353 300.883679,31.3961597 C302.611169,32.2243557 305.014633,33.1278423 306.591907,34.7842345 C307.718531,35.9135927 308.544722,37.4194037 308.544722,39.4522486 C308.544722,43.8191006 305.540391,47.1318848 300.132597,47.1318848 C295.550993,47.1318848 292.621771,44.5720061 292.321338,44.3461344 L293.748395,42.237999 C294.499477,42.7650328 297.353591,44.4967155 300.057488,44.4967155 C303.963118,44.4967155 305.465283,42.3132895 305.465283,39.7534108 C305.465283,38.548762 304.939525,37.5699848 304.113334,36.8170793 C302.911602,35.6124305 301.033896,34.859525 299.306406,34.031329 C297.578916,33.2031329 295.851426,32.3749368 294.649694,31.0949975 C293.97372,30.342092 293.147529,28.9868621 293.147529,26.8787266 Z" id="Path"></path></g></g></g></g></svg> 