<?xml version="1.0" encoding="UTF-8"?> <svg xmlns="http://www.w3.org/2000/svg" xmlns:xlink="http://www.w3.org/1999/xlink" width="282px" height="219px" viewBox="0 0 282 219" version="1.1"><title>asb-glassfloor-logo-supercup-01</title><g id="Company-Logos" stroke="none" stroke-width="1" fill="none" fill-rule="evenodd"><g id="Artboard" transform="translate(-4502, -1607)" fill="#000000" fill-rule="nonzero"><g id="asb-glassfloor-logo-supercup-01" transform="translate(4502, 1607)"><path d="M172.049959,74.4142337 C160.878779,71.3670991 151.149041,64.952079 138.776658,52.5630713 C129.407281,43.1811044 120.758625,32.3557579 111.509368,18.5233707 C107.145,11.9880689 99.9778272,0.601408139 99.9778272,0.20046938 C99.9778272,0.0801877518 101.939791,0 104.342195,0 L108.666523,0 L114.432294,7.13670991 C135.012891,32.5963211 157.235132,55.7304875 173.931842,69.0416543 C178.17609,72.4095399 178.496411,72.7703848 178.376291,73.9331072 C178.25617,75.0557357 178.09601,75.1760174 176.854768,75.2562051 C176.094006,75.296299 173.931842,74.9354541 172.049959,74.4142337 Z" id="Path" transform="translate(139.1867, 37.6296) scale(-1, 1) rotate(-180) translate(-139.1867, -37.6296)"></path><path d="M191.789715,218.582754 C185.583504,217.379937 179.697613,214.813929 174.812724,211.125293 C168.526433,206.394215 143.701587,179.691694 124.842713,157.359405 L117.235099,148.378377 L125.243113,148.258095 L133.211088,148.177907 L133.211088,128.331439 L133.211088,108.48497 L74.15198,108.48497 C27.1849741,108.48497 15.092872,108.364689 15.092872,108.003844 C15.092872,107.723187 14.8125915,105.878868 14.4922709,103.874175 C14.1719503,101.909575 12.5703474,90.162069 10.8886643,77.8131552 C9.24702134,65.4642414 7.8055787,54.6789888 7.64541841,53.8771112 L7.40517797,52.353544 L26.6644532,52.2733562 L45.9237284,52.1530746 L40.0378376,43.3324219 C33.3111053,33.268859 28.0658557,25.0897083 21.8196043,15.1063332 C18.0558374,9.09225183 17.4552363,7.96962331 17.5753566,6.68661928 C17.6554367,5.56399075 17.9357172,5.12295812 18.8566389,4.68192548 C19.977761,4.1607051 20.2580415,4.28098672 25.6634514,6.96727641 C44.9627666,16.6699944 73.4312587,33.0683896 95.9337798,47.4219972 L103.661514,52.353544 L110.188046,52.2733562 L116.754618,52.1530746 L105.663518,44.0942055 C99.5774265,39.6838792 92.0899328,34.2712059 89.0468872,32.1462305 C83.4813171,28.2170306 82.920756,27.4953409 84.4422788,26.5330879 C84.9627998,26.2123369 85.5233608,26.3326185 86.8446832,27.0944021 C92.4502935,30.1816306 109.307164,40.1650057 118.436301,45.8182422 L129.127001,52.353544 L201.839773,52.353544 C241.839807,52.353544 274.552546,52.3936378 274.552546,52.4738256 C274.592586,52.5139195 276.234229,65.1033965 278.276273,80.4192571 L282,108.284501 L245.243213,108.404782 L208.486426,108.48497 L212.770713,112.173607 C219.417366,117.866937 231.989949,130.61679 235.393355,135.227585 C240.958925,142.685046 243.281249,147.857156 243.321289,152.828797 C243.321289,154.392458 243.201169,155.795744 243.081049,155.916025 C242.920889,156.036307 242.080047,155.515087 241.159125,154.673115 C240.238204,153.871238 235.433395,149.581193 230.468426,145.170867 C219.817766,135.668618 207.365304,124.843272 196.114043,115.381117 L187.945868,108.48497 L183.901821,108.48497 C180.498414,108.48497 179.977893,108.565158 180.458374,109.046285 C180.778695,109.326942 184.862782,112.815109 189.467391,116.784403 C207.485424,132.260639 227.665621,151.545793 231.309267,156.838185 C240.478444,170.109258 240.678644,187.991126 231.829788,201.382481 C229.787745,204.509803 224.862816,209.641819 221.85981,211.766795 C218.456404,214.212521 212.530473,216.938905 208.486426,217.941252 C204.082018,219.023786 195.833762,219.344537 191.789715,218.582754 Z M198.756688,212.288015 C203.681617,208.880036 207.125063,201.502762 208.606546,191.278824 C208.886826,189.27413 209.287227,187.670375 209.527468,187.670375 C210.088029,187.670375 210.208149,194.807085 209.687628,198.656097 C209.127067,202.986236 207.685624,207.516844 205.963901,210.403603 C205.20314,211.646513 204.722659,212.849329 204.842779,213.089893 C205.24318,213.731395 210.488429,212.207827 214.452397,210.243227 C219.257205,207.877689 220.738688,205.472056 222.300251,197.292905 C223.261213,192.361359 223.301253,192.281171 223.701653,192.281171 C223.941894,192.281171 224.102054,194.205677 224.102054,197.092436 C224.102054,202.545203 224.342295,202.906048 226.344298,200.179664 C228.426382,197.373093 229.987945,194.285865 231.349307,190.276477 C232.430389,187.028873 232.67063,185.705775 232.83079,181.415731 L233.03099,176.363902 L231.509468,174.720053 C229.307264,172.234233 226.504459,171.312074 221.299249,171.27198 C218.976925,171.231886 216.013959,171.352168 214.692637,171.512543 C211.329271,171.953576 213.010954,171.312074 218.656604,170.069164 C221.179129,169.467756 225.022976,168.906441 227.10506,168.746066 C231.549508,168.465409 231.469428,168.746066 228.826783,163.814519 C226.824779,160.005601 226.424378,159.604662 224.142094,158.802785 C218.496444,156.878278 208.446386,158.121189 198.396327,162.010295 C192.430356,164.335739 192.069996,163.654144 197.675606,160.647103 C203.521457,157.519781 213.851795,154.191989 217.775723,154.191989 C221.059009,154.191989 219.977927,152.628328 214.732677,149.901944 L211.08903,147.977438 L206.684622,148.017532 C203.081016,148.057626 201.639573,148.258095 198.676608,149.180254 C194.031959,150.58354 193.271198,150.743915 193.271198,150.302883 C193.271198,149.901944 198.396327,147.37603 199.197129,147.37603 C199.477409,147.37603 199.677609,147.095373 199.677609,146.734528 C199.677609,146.13312 199.237169,146.093026 195.993923,146.293495 C190.588513,146.614246 183.74166,149.059973 179.777693,152.026919 C176.534447,154.472646 176.334247,163.734331 179.417332,170.75076 C180.458374,173.116298 179.257172,172.635172 177.735649,170.069164 C176.174087,167.543249 173.651562,161.890013 173.651562,160.967854 C173.651562,160.647103 173.411321,160.045695 173.131041,159.644756 C172.65056,158.96316 172.53044,159.003254 171.449358,160.246164 C169.727635,162.331046 166.844749,168.545596 166.844749,170.229539 C166.844749,174.920523 170.568476,182.979392 175.012924,187.790657 C176.134046,188.993473 176.454367,189.634975 176.174087,189.915632 C175.573485,190.51704 169.527434,184.382677 167.645551,181.335543 C165.803708,178.328502 165.243147,178.368596 165.243147,181.455824 C165.243147,188.873191 168.806713,197.373093 174.332243,203.186705 C176.134046,205.071117 176.814728,205.51215 177.85577,205.51215 C180.138054,205.51215 182.820739,204.26924 185.103023,202.224452 C187.545467,199.979195 188.98691,197.774032 190.308232,194.125489 C191.469394,191.078355 191.509435,191.880232 190.468393,196.290559 C189.307231,200.981542 187.185107,205.231493 184.782702,207.597032 C183.70162,208.639472 182.900819,209.681913 183.060979,209.882382 C183.42134,210.483791 189.18711,212.608766 192.270196,213.290362 C195.593522,214.012052 196.434364,213.851676 198.756688,212.288015 Z M180.618535,145.170867 C183.66158,142.845422 190.508433,140.640259 194.952881,140.519977 C197.155085,140.479883 198.556487,140.078944 198.796728,139.437442 C198.956888,138.876128 193.671599,135.387961 188.065988,132.38092 C182.660578,129.534255 176.694607,127.048435 170.288196,124.963553 C163.921824,122.878672 163.401303,123.039047 165.323227,126.487121 C169.167074,133.303079 178.05597,146.173214 178.896812,146.173214 C179.137052,146.173214 179.897813,145.732181 180.618535,145.170867 Z M44.8826865,98.7020645 C46.2040089,98.0605625 47.4052111,97.0582156 48.0458523,96.1360565 C49.3271346,94.331832 50.0478559,91.2045097 49.7275353,89.1597221 L49.4472548,87.6361548 L45.683488,87.6361548 L41.9197211,87.6361548 L41.9197211,89.4403792 C41.9197211,92.407326 39.7575571,93.6502362 35.6734697,93.0889219 C32.0698631,92.6077954 30.3080998,90.8436648 30.3080998,87.7163425 C30.3080998,85.4710855 31.1889815,84.8696773 36.3141108,83.7871427 C43.1609633,82.3036693 45.3231273,81.1409469 46.80461,78.2942817 C47.4852912,76.890996 47.6054115,76.1693063 47.4052111,73.5632043 C47.0448504,68.2307188 44.4822858,64.2213312 40.1579579,62.2968252 C37.3951928,61.0940089 28.9867774,60.733164 25.9837719,61.7355109 C22.179965,63.018515 19.7375205,66.6269638 19.977761,70.6363514 L20.0978812,72.6009513 L24.0218084,72.7212329 L27.9056955,72.8415146 L27.9056955,71.0372901 C27.9056955,68.5915637 28.8666572,67.9500617 32.6304241,67.9500617 C36.7145116,67.9500617 38.9167156,69.2731596 39.3971965,72.1198248 C39.9177174,75.4476165 39.3171163,75.928743 32.9507447,77.211747 C27.9857756,78.2140939 26.0638521,79.0961592 24.2220087,81.1409469 C22.5403256,83.025359 22.0998848,84.6291141 22.3801654,88.197469 C22.740526,92.6478893 24.7024896,95.8553993 28.3060962,97.9803748 C30.9087009,99.503942 33.8716664,100.065256 38.6364351,99.9048808 C42.0398413,99.7845992 43.0808832,99.5841298 44.8826865,98.7020645 Z M198.516447,99.1430972 C202.720655,97.2987789 205.3633,92.3672321 204.682619,87.7564364 L204.442378,86.0323997 L200.638571,86.0323997 L196.874804,86.0323997 L196.874804,88.0370935 C196.874804,89.1196282 196.674604,90.4427261 196.434364,91.0040403 C195.193121,93.7304239 189.14707,94.0511749 185.583504,91.5653546 C183.70162,90.2823506 182.980899,87.9569058 181.819737,79.7777551 C180.738655,72.1599187 180.738655,72.1198248 181.499416,70.5561636 C182.500418,68.511376 184.021941,67.7896862 187.305227,67.8297801 C191.669595,67.9099678 194.23216,69.9547555 195.073001,74.1245186 L195.273201,75.2070532 L199.117048,75.2070532 L202.960895,75.2070532 L202.680615,73.3226411 C201.959894,68.3109066 198.396327,63.7001108 193.951879,62.0562619 C192.029956,61.3345722 190.788713,61.1741967 186.704626,61.1741967 C179.577493,61.1741967 176.894808,62.3369191 174.652564,66.4264944 C173.050961,69.3934412 172.970881,72.2802003 174.212123,81.0607591 C175.533445,90.4427261 176.814728,93.8106117 180.178094,96.5770891 C181.619536,97.7398115 184.822742,99.3034727 186.624546,99.6643175 C189.18711,100.225632 196.834764,99.8647869 198.516447,99.1430972 Z M61.7395573,98.3813135 C60.9387558,93.6101423 58.3361511,73.8438614 58.3361511,72.3202942 C58.3361511,69.8745677 59.4572731,68.511376 61.8997176,67.9500617 C65.6234444,67.1080903 69.9077322,68.9925025 71.1489745,71.9594493 C71.389215,72.6410452 72.4702969,79.0560653 73.5113388,86.3130569 L75.3932223,99.4638482 L79.2771094,99.5841298 C81.3992333,99.6242237 83.1609965,99.6242237 83.1609965,99.5440359 C83.1609965,99.4638482 82.2801149,93.1691096 81.1990329,85.5913671 C78.9567888,69.6740984 78.4763079,68.0703433 75.3932223,64.943021 C72.3501767,61.8958864 70.0678925,61.1741967 63.6214407,61.1741967 C57.2550691,61.1741967 55.8536665,61.5751354 53.4913022,63.9406741 C51.4892986,65.905274 50.3281364,68.7519392 50.3281364,71.5585105 C50.3281364,73.0018901 53.8116228,98.220938 54.1319434,99.183191 C54.2520636,99.503942 55.4132257,99.6643175 58.1359507,99.6643175 L61.9797977,99.6643175 L61.7395573,98.3813135 Z M110.107966,98.5015951 C114.232093,96.4568075 115.112975,93.7304239 114.031893,86.3932446 C113.231091,80.780102 112.39025,78.7353143 110.107966,76.8509021 C107.545401,74.7259267 104.382235,74.004237 97.7355831,74.004237 C93.4512953,74.004237 91.8897324,73.8839553 91.7696122,73.5231104 C91.649492,73.2424533 91.2090512,70.5160697 90.7686104,67.4288413 C90.3281696,64.3817067 89.8476887,61.7355109 89.7275685,61.5350415 C89.6074483,61.3345722 87.9257652,61.1741967 85.9237615,61.1741967 C82.4402752,61.1741967 82.360195,61.1741967 82.360195,62.1364497 C82.360195,63.1387966 87.0448836,97.1784972 87.4052442,98.7822523 L87.6054446,99.7044114 L97.8957434,99.5841298 C107.785641,99.4638482 108.266122,99.4237543 110.107966,98.5015951 Z M142.019904,99.2633788 C142.019904,99.0629094 141.819704,97.5393421 141.579463,95.8954932 L141.139022,92.8483586 L133.251128,92.7681709 L125.403274,92.6478893 L124.922793,89.4403792 C124.682552,87.6762486 124.442312,85.7517426 124.442312,85.1503345 L124.402272,84.0277059 L132.049926,84.0277059 L139.69758,84.0277059 L139.417299,80.9404775 C139.257139,79.2164408 139.056939,77.6928735 138.936818,77.532498 C138.856738,77.3320287 135.373252,77.211747 131.209084,77.211747 C127.044917,77.211747 123.56143,77.0513715 123.44131,76.8509021 C123.080949,76.2895879 122.039908,68.6717515 122.240108,68.3109066 C122.360228,68.1505311 125.883755,67.9901556 130.047922,67.9901556 L137.655536,67.9901556 L137.415296,66.1057434 C137.255135,65.0232087 137.014895,63.5397353 136.854735,62.7779517 L136.574454,61.374666 L125.203073,61.2543844 C118.956822,61.2142905 113.711572,61.2944783 113.551412,61.4548538 C113.311172,61.7355109 118.11598,97.8600931 118.596461,99.183191 C118.796662,99.7845992 142.019904,99.9048808 142.019904,99.2633788 Z M167.16507,99.0629094 C171.569478,97.7398115 173.571482,94.5723953 173.131041,89.5205669 C172.970881,87.9569058 172.65056,85.952212 172.45036,85.1102406 C171.889799,83.1456407 170.007915,81.0206652 168.005912,80.1786938 C166.564469,79.497098 165.923828,78.8155021 166.844749,78.8155021 C167.765671,78.8155021 170.047955,76.249494 170.488396,74.6858328 C170.888797,73.1622656 170.528436,68.9524086 169.367274,62.4972946 L169.167074,61.1741967 L165.323227,61.1741967 L161.51942,61.1741967 L161.75966,63.2991721 C161.87978,64.4218006 162.200101,67.1481842 162.480381,69.2731596 C163.281183,75.4476165 162.720622,76.0089307 155.673569,76.0089307 C152.590483,76.0089307 151.189081,75.8485552 150.9088,75.4877104 C150.66856,75.2070532 150.027919,71.9193554 149.547438,68.1505311 L148.626516,61.374666 L144.662549,61.2543844 L140.698582,61.1341028 L140.938822,62.6576701 C141.058942,63.4996415 142.300185,72.1599187 143.661547,81.9428244 L146.144032,99.6643175 L155.633529,99.6643175 C163.000902,99.6643175 165.563467,99.5440359 167.16507,99.0629094 Z M217.095041,98.5817829 C216.2542,94.1313627 213.691635,74.1646125 213.691635,72.360388 C213.691635,70.7165391 213.891835,69.9146616 214.492437,69.2731596 C216.774721,66.8274332 222.780732,67.3486536 225.263216,70.2354126 C225.943898,70.9971963 226.584539,72.039637 226.744699,72.5608574 C226.864819,73.0820778 227.825781,79.3768163 228.826783,86.4734324 L230.708666,99.4638482 L234.632593,99.5841298 L238.556521,99.7044114 L238.31628,98.3813135 C238.19616,97.6596237 237.275238,91.2846975 236.314276,84.2281753 C234.632593,72.039637 234.472433,71.2377595 233.071031,68.4712821 C232.029989,66.3463067 231.109067,65.1434904 229.667624,64.0208618 C226.584539,61.5350415 224.622575,61.0940089 217.935883,61.2543844 C212.410353,61.374666 212.170112,61.4147599 210.288229,62.5774823 C207.805744,64.1411435 206.084021,67.0679964 205.803741,70.3156004 C205.64358,71.9594493 206.164101,76.7707144 207.485424,86.1526814 L209.407347,99.6643175 L213.331274,99.6643175 L217.295242,99.6643175 L217.095041,98.5817829 Z M265.54353,98.2610319 C269.707698,96.1761503 270.508499,93.3294851 269.187177,85.1102406 C267.745734,76.4098695 264.302288,74.004237 253.131107,74.004237 C249.967941,74.004237 247.285257,73.8438614 247.165136,73.6433921 C247.045016,73.4429227 246.564535,70.7967269 246.124094,67.7495923 C245.683654,64.6623639 245.243213,61.9359803 245.123093,61.695417 C244.922892,61.1341028 237.875839,60.9336334 237.595559,61.4949477 C237.475439,61.695417 242.640608,98.9025339 242.880848,99.5841298 C242.920889,99.6643175 247.485457,99.6643175 253.051027,99.5841298 L263.141126,99.4638482 L265.54353,98.2610319 Z" id="Shape" transform="translate(144.7026, 111.7186) scale(-1, 1) rotate(-180) translate(-144.7026, -111.7186)"></path><path d="M94.5724173,142.175922 C94.3321769,141.815077 92.8106541,132.312828 92.770614,131.110012 C92.770614,130.709073 94.0919365,130.588792 97.9758236,130.588792 C103.100953,130.588792 103.181033,130.588792 104.422275,131.71142 C105.543397,132.713767 105.783638,133.315175 106.224079,136.041559 C106.9448,140.371697 106.90476,140.892918 105.983838,141.815077 C105.263117,142.536767 104.662516,142.616954 100.017867,142.616954 C96.8146614,142.616954 94.7325776,142.456579 94.5724173,142.175922 Z" id="Path" transform="translate(99.7473, 136.6029) scale(-1, 1) rotate(-180) translate(-99.7473, -136.6029)"></path><path d="M153.030924,140.512652 C152.630523,139.470211 151.629522,131.250966 151.869762,130.930215 C152.150043,130.449089 159.917817,130.489183 161.71962,130.970309 C163.921824,131.611811 164.842746,133.175472 165.123026,136.703734 C165.443347,140.91359 165.363267,140.993778 158.596494,140.993778 C154.632527,140.993778 153.151044,140.873497 153.030924,140.512652 Z" id="Path" transform="translate(158.5269, 135.7913) scale(-1, 1) rotate(-180) translate(-158.5269, -135.7913)"></path><path d="M249.727701,141.734889 C249.40738,140.933012 248.126098,132.393016 248.126098,131.110012 C248.126098,130.709073 249.44742,130.588792 253.331308,130.588792 C258.416397,130.588792 258.536517,130.588792 259.777759,131.71142 C260.858841,132.673673 261.059042,133.194894 261.539523,136.562779 C262.100084,140.331604 261.939923,141.53442 260.778761,142.296203 C260.538521,142.456579 258.056036,142.616954 255.213191,142.616954 C250.288262,142.616954 250.088062,142.576861 249.727701,141.734889 Z" id="Path" transform="translate(254.9889, 136.6029) scale(-1, 1) rotate(-180) translate(-254.9889, -136.6029)"></path><path d="M100.437825,99.9442902 C100.821908,100.804248 101.302013,101.473103 101.878138,102.141959 C102.550284,102.715264 103.22243,103.193018 104.086618,103.575222 C104.950806,103.957425 105.911014,104.052976 106.967244,104.052976 C108.119494,104.052976 109.079703,103.861874 110.039912,103.479671 C111.00012,103.097467 111.768287,102.524163 112.440433,101.759756 L110.616037,99.4665361 C110.135932,99.9442902 109.559807,100.422044 108.983682,100.708697 C108.311536,100.995349 107.63939,101.186451 106.967244,101.186451 C106.391119,101.186451 105.911014,101.0909 105.43091,100.899798 C104.950806,100.708697 104.566722,100.422044 104.182639,100.135392 C103.798555,99.7531886 103.510493,99.3709853 103.318451,98.8932312 C103.126409,98.415477 103.030388,97.8421721 103.030388,97.2688671 C103.030388,96.6955622 103.126409,96.1222572 103.318451,95.6445031 C103.510493,95.1667489 103.798555,94.6889948 104.182639,94.4023423 C104.566722,94.020139 104.950806,93.7334866 105.43091,93.5423849 C105.911014,93.3512833 106.391119,93.2557324 106.967244,93.2557324 C107.735411,93.2557324 108.407557,93.4468341 108.983682,93.7334866 C109.559807,94.020139 110.135932,94.4978932 110.616037,94.9756473 L112.440433,92.6824275 C111.768287,91.9180209 111.00012,91.3447159 110.039912,90.9625126 C109.079703,90.5803093 108.119494,90.3892077 106.967244,90.3892077 C105.911014,90.3892077 105.046827,90.5803093 104.086618,90.8669618 C103.22243,91.2491651 102.454263,91.7269192 101.878138,92.3002242 C101.205992,92.8735291 100.725888,93.6379357 100.437825,94.4978932 C100.053742,95.3578506 99.8616998,96.217808 99.8616998,97.2688671 C99.8616998,98.2243754 100.053742,99.1798836 100.437825,99.9442902 M71.919628,90.6758601 L68.8469604,90.6758601 L68.8469604,103.670772 L71.919628,103.670772 L71.919628,90.6758601 Z M79.9853807,90.771411 C79.3132347,91.0580634 78.8331303,91.5358176 78.4490469,92.2046733 L78.4490469,90.6758601 L75.3763792,90.6758601 L75.3763792,103.670772 L78.4490469,103.670772 L78.4490469,96.5044605 C78.4490469,95.9311556 78.5450677,95.4534014 78.6410886,95.0711981 C78.7371095,94.6889948 79.0251721,94.3067915 79.2172138,94.020139 C79.5052764,93.7334866 79.793339,93.5423849 80.1774224,93.3512833 C80.5615059,93.1601816 80.9455894,93.1601816 81.4256937,93.1601816 C81.8097772,93.1601816 82.1938606,93.1601816 82.5779441,93.2557324 C82.9620275,93.3512833 83.346111,93.4468341 83.6341736,93.6379357 L84.3063197,90.6758601 C83.9222362,90.5803093 83.6341736,90.4847585 83.2500901,90.4847585 C82.8660067,90.3892077 82.4819232,90.3892077 82.0978398,90.3892077 C81.3296728,90.3892077 80.5615059,90.4847585 79.9853807,90.771411 M88.2431751,96.0267064 C88.339196,95.6445031 88.4352169,95.2622998 88.5312377,94.8800965 C88.7232794,94.4978932 88.9153212,94.2112407 89.2033838,93.9245882 C89.4914464,93.6379357 89.779509,93.4468341 90.1635924,93.3512833 C90.5476759,93.1601816 90.9317593,93.1601816 91.5078845,93.1601816 C91.9879889,93.1601816 92.3720723,93.2557324 92.7561558,93.3512833 C93.1402392,93.5423849 93.4283018,93.7334866 93.7163644,93.9245882 C94.004427,94.2112407 94.1964688,94.4978932 94.3885105,94.8800965 C94.5805522,95.2622998 94.6765731,95.6445031 94.6765731,96.0267064 L88.2431751,96.0267064 Z M88.9153212,90.8669618 C88.1471543,91.2491651 87.4750082,91.6313684 86.898883,92.3002242 C86.3227578,92.96908 85.8426535,93.6379357 85.5545909,94.4978932 C85.2665283,95.3578506 85.0744866,96.3133589 85.0744866,97.2688671 C85.0744866,98.3199262 85.2665283,99.2754345 85.5545909,100.135392 C85.8426535,100.995349 86.3227578,101.664205 86.898883,102.333061 C87.4750082,102.906366 88.2431751,103.38412 89.011342,103.766323 C89.8755298,104.052976 90.7397176,104.244077 91.6999263,104.244077 C92.7561558,104.244077 93.6203436,104.148527 94.5805522,103.861874 C95.44474,103.575222 96.3089278,103.097467 97.1731156,102.428612 L95.7328026,100.135392 C95.1566774,100.613146 94.5805522,100.899798 93.9084062,101.186451 C93.2362601,101.473103 92.5641141,101.568654 91.9879889,101.568654 C91.5078845,101.568654 91.1238011,101.473103 90.6436968,101.377553 C90.2596133,101.282002 89.8755298,101.0909 89.4914464,100.804248 C89.2033838,100.517595 88.9153212,100.230943 88.6272586,99.8487394 C88.4352169,99.4665361 88.2431751,98.988782 88.2431751,98.5110279 L97.6532199,98.5110279 C97.6532199,98.3199262 97.7492408,98.1288245 97.7492408,97.9377229 C97.7492408,97.7466212 97.7492408,97.5555196 97.7492408,97.3644179 C97.7492408,96.3133589 97.557199,95.4534014 97.2691365,94.593444 C96.9810739,93.7334866 96.5009695,93.0646308 96.0208652,92.395775 C95.44474,91.82247 94.8686148,91.3447159 94.1004479,90.9625126 C93.332281,90.5803093 92.4680932,90.4847585 91.6039054,90.4847585 C90.6436968,90.3892077 89.779509,90.4847585 88.9153212,90.8669618 M57.1324148,100.899798 C56.6523105,100.708697 56.268227,100.422044 55.9801644,100.039841 C55.6921018,99.6576378 55.4040392,99.2754345 55.2119975,98.7976803 C55.0199558,98.3199262 54.9239349,97.8421721 54.9239349,97.2688671 C54.9239349,96.6955622 55.0199558,96.217808 55.2119975,95.7400539 C55.4040392,95.2622998 55.596081,94.8800965 55.9801644,94.4978932 C56.268227,94.1156899 56.6523105,93.8290374 57.1324148,93.6379357 C57.6125191,93.4468341 58.0926234,93.3512833 58.7647695,93.3512833 C59.3408947,93.3512833 59.820999,93.4468341 60.3011033,93.6379357 C60.7812077,93.8290374 61.1652911,94.1156899 61.4533537,94.4978932 C61.7414163,94.8800965 62.0294789,95.2622998 62.2215207,95.7400539 C62.4135624,96.217808 62.5095832,96.791113 62.5095832,97.3644179 C62.5095832,97.9377229 62.4135624,98.415477 62.2215207,98.8932312 C62.0294789,99.3709853 61.8374372,99.8487394 61.4533537,100.135392 C61.1652911,100.517595 60.7812077,100.804248 60.3011033,100.995349 C59.820999,101.186451 59.3408947,101.282002 58.7647695,101.282002 C58.0926234,101.186451 57.6125191,101.0909 57.1324148,100.899798 M65.3902092,83.7962007 L62.3175415,83.7962007 L62.3175415,92.2046733 C61.9334581,91.6313684 61.3573329,91.1536143 60.6851868,90.8669618 C60.0130408,90.5803093 59.2448738,90.3892077 58.2846652,90.3892077 C57.3244565,90.3892077 56.4602687,90.5803093 55.6921018,90.8669618 C54.9239349,91.2491651 54.2517888,91.7269192 53.6756636,92.3002242 C53.0995385,92.8735291 52.6194341,93.6379357 52.3313715,94.4978932 C51.9472881,95.2622998 51.8512672,96.217808 51.8512672,97.2688671 C51.8512672,98.3199262 52.0433089,99.1798836 52.3313715,100.039841 C52.6194341,100.899798 53.0995385,101.568654 53.6756636,102.23751 C54.2517888,102.810815 54.9239349,103.288569 55.6921018,103.670772 C56.4602687,104.052976 57.3244565,104.148527 58.2846652,104.148527 C59.2448738,104.148527 60.0130408,103.957425 60.6851868,103.670772 C61.3573329,103.38412 61.9334581,102.906366 62.3175415,102.333061 L62.3175415,103.766323 L65.3902092,103.766323 L65.3902092,83.7962007 L65.3902092,83.7962007 Z M19.4922356,100.899798 C19.0121313,100.708697 18.6280478,100.422044 18.2439644,100.039841 C17.8598809,99.6576378 17.6678392,99.2754345 17.4757975,98.7976803 C17.2837557,98.3199262 17.1877349,97.7466212 17.1877349,97.1733163 C17.1877349,96.6000113 17.2837557,96.0267064 17.4757975,95.5489523 C17.6678392,95.0711981 17.9559018,94.593444 18.2439644,94.3067915 C18.532027,94.020139 19.0121313,93.6379357 19.4922356,93.4468341 C19.97234,93.2557324 20.4524443,93.1601816 21.0285695,93.1601816 C21.6046947,93.1601816 22.084799,93.2557324 22.5649033,93.4468341 C23.0450076,93.6379357 23.4290911,93.9245882 23.8131746,94.3067915 C24.197258,94.6889948 24.3892998,95.0711981 24.5813415,95.5489523 C24.7733832,96.0267064 24.8694041,96.6000113 24.8694041,97.1733163 C24.8694041,97.7466212 24.7733832,98.3199262 24.5813415,98.7976803 C24.3892998,99.2754345 24.1012372,99.7531886 23.8131746,100.039841 C23.4290911,100.422044 23.0450076,100.708697 22.5649033,100.899798 C22.084799,101.0909 21.6046947,101.186451 21.0285695,101.186451 C20.4524443,101.186451 19.97234,101.0909 19.4922356,100.899798 M18.2439644,90.8669618 C17.3797766,91.2491651 16.6116097,91.7269192 16.0354845,92.3002242 C15.3633384,92.8735291 14.8832341,93.6379357 14.5951715,94.4978932 C14.2110881,95.3578506 14.0190463,96.217808 14.0190463,97.1733163 C14.0190463,98.1288245 14.2110881,99.0843328 14.5951715,99.9442902 C14.979255,100.804248 15.4593593,101.473103 16.0354845,102.141959 C16.7076305,102.715264 17.3797766,103.288569 18.2439644,103.575222 C19.1081522,103.957425 20.0683608,104.148527 21.0285695,104.148527 C22.084799,104.148527 22.9489868,103.957425 23.8131746,103.575222 C24.6773624,103.193018 25.4455293,102.715264 26.0216545,102.141959 C26.6938005,101.568654 27.1739049,100.804248 27.4619674,99.9442902 C27.8460509,99.0843328 28.0380926,98.2243754 28.0380926,97.1733163 C28.0380926,96.1222572 27.8460509,95.2622998 27.4619674,94.4978932 C27.077884,93.6379357 26.5977797,92.96908 26.0216545,92.3002242 C25.3495084,91.7269192 24.6773624,91.1536143 23.8131746,90.8669618 C23.0450076,90.4847585 22.084799,90.3892077 21.0285695,90.3892077 C20.0683608,90.3892077 19.1081522,90.4847585 18.2439644,90.8669618 M0.576125191,99.9442902 C0.960208652,100.804248 1.44031298,101.473103 2.01643817,102.141959 C2.68858423,102.715264 3.36073028,103.193018 4.22491807,103.575222 C5.08910586,103.957425 6.04931451,104.052976 7.10554403,104.052976 C8.25779441,104.052976 9.21800306,103.861874 10.1782117,103.479671 C11.1384204,103.097467 11.9065873,102.524163 12.5787333,101.759756 L10.7543369,99.4665361 C10.2742326,99.9442902 9.79412825,100.422044 9.12198219,100.708697 C8.44983614,100.995349 7.77769008,101.186451 7.10554403,101.186451 C6.52941883,101.186451 6.04931451,101.0909 5.56921018,100.899798 C5.08910586,100.708697 4.7050224,100.422044 4.32093893,100.135392 C3.93685547,99.7531886 3.64879288,99.3709853 3.45675115,98.8932312 C3.26470942,98.415477 3.16868855,97.8421721 3.16868855,97.2688671 C3.16868855,96.6955622 3.26470942,96.1222572 3.45675115,95.6445031 C3.64879288,95.1667489 3.93685547,94.6889948 4.32093893,94.4023423 C4.7050224,94.020139 5.08910586,93.7334866 5.56921018,93.5423849 C6.04931451,93.3512833 6.52941883,93.2557324 7.10554403,93.2557324 C7.87371095,93.2557324 8.545857,93.4468341 9.12198219,93.7334866 C9.69810739,94.020139 10.2742326,94.4978932 10.7543369,94.9756473 L12.5787333,92.6824275 C11.9065873,91.9180209 11.1384204,91.3447159 10.1782117,90.9625126 C9.21800306,90.5803093 8.25779441,90.3892077 7.10554403,90.3892077 C6.04931451,90.3892077 5.18512672,90.5803093 4.22491807,90.8669618 C3.36073028,91.2491651 2.68858423,91.7269192 2.01643817,92.3002242 C1.34429211,92.8735291 0.864187787,93.6379357 0.576125191,94.4978932 C0.19204173,95.3578506 0,96.217808 0,97.2688671 C0,98.2243754 0.19204173,99.1798836 0.576125191,99.9442902 M121.658436,100.804248 C121.370374,100.899798 121.082311,100.995349 120.794248,101.0909 C120.506186,101.186451 120.218123,101.186451 119.930061,101.186451 C119.641998,101.186451 119.353935,101.186451 119.161894,101.0909 C118.969852,100.995349 118.681789,100.899798 118.585769,100.708697 C118.393727,100.517595 118.297706,100.326494 118.201685,99.9442902 C118.105664,99.6576378 118.105664,99.2754345 118.105664,98.7976803 L118.105664,93.4468341 L122.04252,93.4468341 L122.04252,90.6758601 L118.105664,90.6758601 L118.105664,86.7582763 L115.032997,86.7582763 L115.032997,98.988782 C115.032997,100.708697 115.41708,102.046408 116.281268,102.810815 C117.145456,103.670772 118.297706,104.052976 119.83404,104.052976 C120.314144,104.052976 120.890269,103.957425 121.274353,103.861874 C121.754457,103.766323 122.138541,103.575222 122.522624,103.38412 L121.658436,100.804248 Z M38.3123252,103.766323 L41.3849929,103.766323 L41.3849929,96.6000113 C41.3849929,95.5489523 41.5770346,94.6889948 41.9611181,94.1156899 C42.3452016,93.5423849 42.9213267,93.2557324 43.7855145,93.2557324 C44.6497023,93.2557324 45.1298066,93.5423849 45.5138901,94.1156899 C45.8979736,94.6889948 46.0900153,95.4534014 46.0900153,96.5044605 L46.0900153,103.766323 L49.162683,103.766323 L49.162683,95.6445031 C49.162683,94.8800965 49.0666621,94.2112407 48.7785995,93.5423849 C48.4905369,92.8735291 48.2024743,92.395775 47.72237,91.9180209 C47.3382865,91.4402667 46.7621614,91.0580634 46.1860362,90.8669618 C45.609911,90.5803093 44.9377649,90.4847585 44.2656189,90.4847585 C43.4014311,90.4847585 42.6332642,90.6758601 41.9611181,91.0580634 C41.288972,91.4402667 40.7128468,92.0135717 40.2327425,92.7779783 C39.7526382,92.0135717 39.176513,91.4402667 38.5043669,91.0580634 C37.8322209,90.6758601 37.3521166,90.3892077 36.4879288,90.3892077 C36.1038453,90.3892077 35.8157827,90.3892077 35.5277201,90.4847585 C35.2396575,90.5803093 34.9515949,90.6758601 34.6635323,90.8669618 C34.3754697,90.9625126 34.183428,91.1536143 33.9913863,91.3447159 C33.7993446,91.5358176 33.7033237,91.6313684 33.6073028,91.82247 L33.6073028,90.6758601 L30.5346351,90.6758601 L30.5346351,103.670772 L33.6073028,103.670772 L33.6073028,96.5044605 C33.6073028,95.4534014 33.7993446,94.593444 34.183428,94.020139 C34.5675115,93.4468341 35.1436367,93.1601816 35.9118036,93.1601816 C36.6799705,93.1601816 37.2560957,93.4468341 37.7362,94.020139 C38.1202835,94.593444 38.3123252,95.3578506 38.3123252,96.4089097 L38.3123252,103.766323 Z" id="Shape"></path></g></g></g></svg> 